<?xml version="1.0" encoding="utf-8"?><!-- Uploaded to: SVG Repo, www.svgrepo.com, Generator: SVG Repo Mixer Tools -->
<svg fill="#000000" width="800px" height="800px" viewBox="0 0 50 50" xmlns="http://www.w3.org/2000/svg" xmlns:xlink="http://www.w3.org/1999/xlink"><path d="M24.90625 -0.03125C24.863281 -0.0234375 24.820313 -0.0117188 24.78125 0C24.316406 0.105469 23.988281 0.523438 24 1L24 4.0625C19.867188 4.53125 16.546875 7.839844 16.0625 11.96875L16 11.96875C15.925781 11.960938 15.855469 11.960938 15.78125 11.96875C15.25 12.070313 14.886719 12.5625 14.945313 13.101563C15.003906 13.636719 15.460938 14.042969 16 14.03125L16 22.5L18 21.6875L18 14.03125L20 14.03125L20 20.90625L22 20.1875L22 14.03125L24 14.03125L24 19.40625L25 19L26 19.40625L26 14.03125L28 14.03125L28 20.1875L30 20.90625L30 14.03125L32 14.03125L32 21.6875L34 22.5L34 14.03125C34.402344 14.085938 34.800781 13.902344 35.019531 13.5625C35.238281 13.21875 35.238281 12.78125 35.019531 12.4375C34.800781 12.097656 34.402344 11.914063 34 11.96875L33.9375 11.96875C33.453125 7.839844 30.132813 4.53125 26 4.0625L26 1C26.011719 0.710938 25.894531 0.433594 25.6875 0.238281C25.476563 0.0390625 25.191406 -0.0585938 24.90625 -0.03125 Z M 24.8125 6C24.917969 6.015625 25.019531 6.015625 25.125 6C25.15625 6 25.1875 6 25.21875 6C28.605469 6.105469 31.273438 8.691406 31.78125 11.96875L18.21875 11.96875C18.730469 8.679688 21.410156 6.089844 24.8125 6 Z M 24.875 21C24.800781 21.011719 24.726563 21.035156 24.65625 21.0625L5.65625 28.375C5.261719 28.519531 5 28.894531 5 29.3125L5 33C5 33.550781 5.449219 34 6 34L7 34L7 49C7 49.550781 7.449219 50 8 50L19.3125 50C19.863281 50 20.3125 49.550781 20.3125 49L20.3125 43.59375C20.3125 41.339844 21.777344 39.28125 23.96875 38.875C23.980469 38.875 23.988281 38.875 24 38.875C27.019531 38.289063 29.59375 40.515625 29.59375 43.40625L29.59375 49C29.59375 49.550781 30.042969 50 30.59375 50L42 50C42.550781 50 43 49.550781 43 49L43 34L44 34C44.550781 34 45 33.550781 45 33L45 29.3125C45 28.894531 44.738281 28.519531 44.34375 28.375L25.34375 21.0625C25.195313 21.003906 25.035156 20.984375 24.875 21 Z M 25 23.0625L43 29.96875L43 32L8.1875 32C8.054688 31.972656 7.914063 31.972656 7.78125 32L7 32L7 29.96875 Z M 9 34L41 34L41 48L31.59375 48L31.59375 43.40625C31.59375 39.308594 27.792969 36.117188 23.625 36.90625C23.613281 36.910156 23.605469 36.902344 23.59375 36.90625C20.402344 37.511719 18.3125 40.460938 18.3125 43.59375L18.3125 48L9 48Z"/></svg>