<?xml version="1.0" encoding="utf-8" ?>
<svg xmlns="http://www.w3.org/2000/svg" xmlns:xlink="http://www.w3.org/1999/xlink" width="100" height="100">
	<path d="M48.7217 0L51.2159 0C52.3751 2.46739 52.0194 5.48097 51.962 8.13024Q53.1357 8.29888 54.2804 8.60791Q55.4252 8.91693 56.5242 9.36183Q57.6233 9.80673 58.6607 10.381Q59.6981 10.9553 60.6586 11.6505C64.6825 14.606 66.9655 18.7663 67.7122 23.6531C68.3999 23.9495 69.4305 24.3063 69.8789 24.9278C70.1561 25.3121 70.2679 25.6883 70.1856 26.1561C70.0033 27.1918 68.8523 27.8574 68.0513 28.4126C67.7828 33.9283 68.0075 39.5546 68.0086 45.0823C66.7503 44.4765 65.4684 44.0103 64.1493 43.5552C63.7868 38.4435 64.0628 33.1684 64.0963 28.0387Q62.0633 28.0007 60.0309 27.9349C59.8931 32.5966 59.984 37.2922 59.9583 41.9581C58.7095 41.3607 57.4552 40.8982 56.1408 40.4663C55.8582 36.3657 56.0677 32.1556 56.1324 28.045L52.0342 27.9429C51.9706 29.9579 52.4628 37.4134 51.6577 38.721C51.0955 38.4778 50.5459 38.2566 49.9554 38.0907C49.6154 37.9952 48.8114 38.5958 48.474 38.7855C47.6258 37.7609 48.1137 29.7309 48.1592 28.053L44.0353 27.9499C43.8806 32.068 44.0835 36.1976 43.9309 40.3207C42.795 40.7566 41.3806 41.8439 40.2361 41.6768C39.6747 40.6801 40.1175 29.7747 40.1599 28.05L36.0192 27.9287C35.8878 33.0725 36.1256 38.2217 35.9309 43.3664C34.5593 43.9241 33.2711 44.466 32.0456 45.3064Q32.085 36.8196 32.0183 28.333C31.3731 27.9623 30.4964 27.5082 30.1641 26.7996C29.9096 26.257 29.8638 25.8196 30.0784 25.2545C30.3798 24.4612 31.3457 24.0883 32.0599 23.7546C32.8067 20.7908 33.7077 18.0435 35.4944 15.524C38.6358 11.0944 42.8516 9.07185 48.0876 8.18696C48.0271 5.38961 47.8562 2.6988 48.7217 0ZM48.8322 12.0851C44.858 12.7174 41.6005 14.1687 39.1762 17.5046C37.7517 19.4647 36.96 21.7013 36.1902 23.9774Q43.5637 24.0632 50.9375 24.0166L63.7197 24.0353C62.2451 19.5793 60.5184 15.6621 56.1036 13.4406C53.8786 12.321 51.3055 11.9319 48.8322 12.0851Z"/>
	<path d="M14.0691 68.1558C12.9506 68.0514 11.6057 68.0717 10.6098 67.5111C9.59098 66.276 9.95498 60.9376 10.1075 59.3312C10.1619 58.7587 10.2403 57.5518 10.7 57.1908C12.0067 56.1649 43.9147 43.9879 47.4559 42.8427C48.5055 42.5033 49.5076 42.1997 50.6203 42.3639C54.2428 42.8986 67.4231 48.5793 71.8503 50.3031C76.8987 52.2688 82.1674 54.0056 87.1318 56.139C87.9539 56.4923 88.7526 56.9059 89.4215 57.5089C90.526 59.7761 90.3539 64.6573 89.5475 67.0223C89.0504 67.6495 88.5633 67.9261 87.7628 68.0187C87.1846 68.0856 86.6017 68.1208 86.0207 68.1527Q85.9564 77.924 86.0346 87.695C86.0432 90.9264 86.3507 94.5165 85.8409 97.7088C85.7037 98.5682 85.3324 99.2644 84.8859 100L60.152 100L39.5565 100L15.0408 100C14.595 99.3458 14.2896 98.749 14.1739 97.959C13.6963 94.7003 14.0109 91.0211 14.0207 87.7135L14.0691 68.1558ZM18.0453 67.9641C17.7901 77.3091 18.1771 86.6676 17.9557 96.0141C24.2722 95.9635 30.6123 96.1409 36.9245 95.9917C36.6133 89.884 35.8521 82.5993 40.2648 77.7364Q40.6851 77.2781 41.1484 76.8635Q41.6118 76.4489 42.1137 76.0819Q42.6156 75.7149 43.1513 75.3991Q43.6869 75.0833 44.251 74.8218Q44.8152 74.5603 45.4023 74.3557Q45.9895 74.151 46.5939 74.0052Q47.1984 73.8593 47.8142 73.7737Q48.4301 73.6881 49.0514 73.6636Q49.7297 73.6355 50.4074 73.6735Q51.0852 73.7115 51.7561 73.8153Q52.4269 73.919 53.0845 74.0875Q53.7421 74.2559 54.3803 74.4875Q55.0184 74.7191 55.6309 75.0117Q56.2435 75.3042 56.8247 75.655Q57.4059 76.0057 57.9503 76.4113Q58.4947 76.8168 58.997 77.2734C61.8634 79.9094 63.0147 83.4954 63.1653 87.3086C63.2247 88.811 63.2015 90.3231 63.1934 91.8266C63.1612 93.2072 63.1508 94.5933 63.0691 95.9717L82.0606 96.0343C82.0519 86.7401 81.7935 77.3638 82.1245 68.078C66.7612 67.553 50.6906 68.0011 35.2504 68.0145C29.5627 68.0194 23.7163 68.3165 18.0453 67.9641ZM49.8158 46.2816C43.259 48.4638 36.8007 51.1865 30.3432 53.6561C24.9834 55.7059 19.387 57.5498 14.1489 59.8758C14.0695 61.2645 13.9603 62.6589 13.9235 64.0491L50.375 64.0249L86.0668 64.0427L86.0608 60.0168Q73.5796 55.0844 61.0264 50.3376C58.0936 49.2144 52.6416 46.6334 49.8158 46.2816ZM39.5565 100L60.152 100C58.0674 96.2884 59.979 89.076 58.7634 84.4865C58.1567 82.196 56.883 79.9599 54.7723 78.7554C52.5759 77.5021 49.3992 77.3542 46.9963 78.0247C36.716 80.8932 43.2434 93.4341 39.5565 100Z"/>
</svg>
