<?xml version="1.0" encoding="utf-8" ?>
<svg xmlns="http://www.w3.org/2000/svg" xmlns:xlink="http://www.w3.org/1999/xlink" width="100" height="100">
	<path d="M48.5239 12.0899C50.4634 11.9458 52.0822 12.1576 53.83 13.0427C55.4362 13.856 56.8128 15.0725 57.3732 16.8353C58.5489 20.533 56.7175 22.8324 55.2268 25.9646C55.1003 26.2306 55.0015 26.5718 55.0976 26.8522C56.0744 29.703 61.715 38.2113 63.5644 41.2951C65.1337 43.9116 66.5649 46.8364 68.2835 49.3321C68.455 49.5811 68.7107 49.7698 68.9802 49.901C70.9692 50.0078 80.1812 44.3194 82.6475 43.0602C82.1598 40.5981 82.0588 38.1134 83.3919 35.8704Q83.5747 35.5647 83.7871 35.2787Q83.9996 34.9927 84.2395 34.7294Q84.4794 34.466 84.7444 34.2279Q85.0093 33.9898 85.2968 33.7794Q85.5842 33.5689 85.8912 33.3882Q86.1982 33.2075 86.5217 33.0583Q86.8452 32.9091 87.1819 32.7929Q87.5187 32.6768 87.8654 32.5948Q88.2475 32.502 88.6369 32.4467Q89.0262 32.3914 89.4191 32.3741Q89.812 32.3567 90.2047 32.3776Q90.5974 32.3984 90.9862 32.4572Q91.375 32.516 91.7563 32.6123Q92.1376 32.7085 92.5078 32.8412Q92.8779 32.9739 93.2335 33.1419Q93.5891 33.3099 93.9267 33.5115C95.5564 34.5052 96.6738 36.0198 97.1206 37.8755C97.5885 39.8188 97.3357 42.2382 96.2774 43.9465C94.8167 46.3041 92.3234 47.0983 89.7783 47.6933C88.5871 51.4269 87.8505 55.4051 86.9521 59.2223C85.7438 64.3562 84.2306 69.584 83.7879 74.8526C83.4332 79.073 83.7135 83.468 83.6211 87.7118C80.0049 87.9569 76.2379 87.7485 72.6048 87.7464L50.875 87.7313L29.1309 87.7304C24.8569 87.7359 20.5394 87.622 16.2742 87.865C16.3192 83.3376 16.5761 78.6619 16.1342 74.1551C15.716 69.8906 14.5249 65.6863 13.5574 61.519C12.4898 56.9207 11.5216 52.2624 10.2568 47.7155C9.51205 47.5495 8.74372 47.4059 8.01752 47.17C6.12503 46.5551 4.31216 45.3197 3.41309 43.5056C2.48868 41.6404 2.33274 39.1389 3.01691 37.1746C3.64283 35.3776 4.99469 33.9502 6.71165 33.1455Q7.07204 32.9792 7.4469 32.8487Q7.82176 32.7182 8.20754 32.6248Q8.59331 32.5314 8.98634 32.4759Q9.37937 32.4204 9.77593 32.4035Q10.1725 32.3865 10.5688 32.4082Q10.9652 32.4299 11.3575 32.49Q11.7498 32.5501 12.1345 32.6481Q12.5191 32.7461 12.8924 32.881C14.7043 33.5343 16.2287 34.8051 17.0417 36.5709C17.9794 38.6072 17.8221 40.8041 17.0544 42.8468C20.5099 44.9203 27.591 49.0047 31.1628 50.3491C35.7214 42.1918 40.8647 34.3579 45.3998 26.1886C44.075 24.8254 43.019 23.5956 42.504 21.7226Q42.4015 21.3459 42.3363 20.961Q42.2712 20.576 42.2441 20.1866Q42.217 19.7971 42.2281 19.4069Q42.2393 19.0167 42.2886 18.6294Q42.338 18.2421 42.425 17.8615Q42.5121 17.481 42.636 17.1107Q42.7599 16.7405 42.9195 16.3842Q43.0791 16.0279 43.2728 15.689C44.4529 13.6571 46.3187 12.6607 48.5239 12.0899ZM48.207 27.3567C44.3233 33.3283 40.8379 39.6466 37.2008 45.7792C35.648 48.3976 34.1731 51.4464 32.2042 53.7658L31.8687 53.6329L31.9756 53.9623C30.4297 53.8897 18.1674 46.7548 15.5644 45.4427L13.1678 46.96C15.0551 55.3791 16.8675 63.8943 19.0827 72.2309C29.9206 72.442 40.7842 72.2912 51.625 72.2809C61.3815 72.2778 71.186 72.082 80.9366 72.3468C81.799 68.3964 86.872 49.3178 86.4278 47.0888C86.0161 46.4528 85.4698 45.9993 84.7172 45.8155C83.279 45.4642 70.1167 53.0867 67.8493 54.3783C62.4108 45.5833 56.9345 36.5652 51.9469 27.5078C50.6745 27.5494 49.4649 27.5929 48.207 27.3567ZM19.6882 75.667C19.6821 78.5275 19.7864 81.4441 19.5782 84.2956L59.1346 84.2839C66.2074 84.2839 73.3433 84.0919 80.4092 84.3468C80.2786 81.4713 80.3422 78.5852 80.3658 75.7074C60.1582 75.8402 39.8931 75.9446 19.6882 75.667ZM88.6127 35.2227C87.0738 36.0052 85.9195 36.7967 85.357 38.5339C84.981 39.6949 85.0488 40.931 85.6072 42.0224C86.1818 43.1455 87.2314 43.9161 88.4196 44.2928C89.2339 44.551 90.0582 44.5461 90.8998 44.4752C92.3268 43.9475 93.4144 43.302 94.0788 41.8467C94.6034 40.6977 94.6617 39.4282 94.21 38.2447Q94.0379 37.8027 93.7825 37.4031Q93.5271 37.0034 93.1984 36.6616Q92.8697 36.3197 92.4803 36.0489Q92.091 35.7781 91.6561 35.5888C90.6443 35.1465 89.6866 35.1694 88.6127 35.2227ZM8.8513 35.26L6.76114 36.5177C5.83116 38.0313 5.21969 39.3197 5.65456 41.1557C5.91355 42.2492 6.54921 43.2106 7.52058 43.7928C8.79478 44.5564 10.0743 44.5838 11.4896 44.3693C12.8567 43.8911 13.7915 43.1301 14.4341 41.8107C14.9449 40.7618 14.9713 39.5125 14.5885 38.4183Q14.507 38.1899 14.4034 37.9707Q14.2998 37.7515 14.175 37.5435Q14.0503 37.3356 13.9056 37.141Q13.761 36.9463 13.5978 36.7669Q13.4347 36.5876 13.2547 36.4251Q13.0746 36.2627 12.8794 36.1188Q12.6842 35.975 12.4758 35.8511Q12.2673 35.7271 12.0477 35.6244C11.0322 35.1535 9.9477 35.1062 8.8513 35.26ZM49.8397 14.994C48.5212 15.4174 47.3865 15.8951 46.3372 16.8375L45.3839 19.6263C45.6643 20.6035 45.9346 21.5853 46.2266 22.5591C47.6391 23.5846 48.5912 24.0454 50.3785 24.1576C51.697 23.9909 52.7119 23.5579 53.5527 22.4904Q53.8216 22.1466 54.0161 21.7559Q54.2106 21.3652 54.3227 20.9434Q54.4349 20.5216 54.4601 20.0858Q54.4853 19.6501 54.4226 19.2182C54.2599 18.0183 53.5831 16.8133 52.6147 16.0804C51.8943 15.5353 50.7309 15.1177 49.8397 14.994Z"/>
</svg>
