<?xml version="1.0" encoding="utf-8" ?>
<svg xmlns="http://www.w3.org/2000/svg" xmlns:xlink="http://www.w3.org/1999/xlink" width="100" height="100">
	<path d="M0 76.6497C4.92466 73.7711 12.1204 68.2256 18.0588 69.7785C21.818 70.7615 25.4081 72.9765 29.0776 74.342Q35.279 76.5859 41.5152 78.7315C43.2534 79.3137 45.2084 79.6409 46.8453 80.4707C50.8827 79.817 54.879 77.9334 58.5999 76.3003C71.1377 70.7975 74.1982 67.8549 88.227 72.2503C92.2267 73.5035 96.2482 74.7514 100 76.6516L100 79.9881L100 100L52.5147 100L40.6929 100L0 100L0 80.592L0 76.6497ZM0 80.592L0 100L40.6929 100C42.6714 98.3956 51.8035 96.773 55.089 95.5989C61.4271 93.3339 76.2025 87.519 79.1346 81.2106C79.6992 79.9957 79.8038 78.6803 79.3237 77.4194C78.9406 76.4134 78.1647 75.6937 77.1884 75.2697C71.8393 72.9467 64.3084 77.1055 59.5163 79.2319Q55.8649 80.8365 52.1498 82.2879Q47.144 84.2759 41.9821 85.8135C38.5506 86.8429 35.083 87.4971 31.6266 88.3914C29.0118 89.068 14.721 93.3482 12.8936 93.1627C12.7427 93.1474 12.3859 92.9414 12.2342 92.8754L12.2184 93.198L12.0991 93.1645L12.1638 92.929C13.713 91.9292 15.58 91.3727 17.2794 90.6651C21.9666 88.7136 26.2831 86.8007 31.265 85.6673C29.7365 85.3155 28.2641 84.9415 26.8187 84.318C19.8802 81.3251 17.2394 79.4813 14.4324 72.4455C9.0153 73.9972 4.50935 77.3587 0 80.592ZM78.8645 72.6601C80.9452 73.9838 82.5466 75.3075 83.1305 77.8484C83.5698 79.7602 83.0246 81.5586 82.0005 83.1717C77.6232 90.0662 66.646 94.6715 59.2202 97.3715C57.3418 98.0544 53.9978 98.7776 52.5147 100L100 100L100 79.9881C93.8325 75.8349 85.9264 74.6312 78.8645 72.6601ZM18.2177 73.2139C18.8829 75.7487 21.2166 77.6111 23.3816 78.8795C27.2405 81.1403 31.5459 82.304 35.6351 84.0257C37.7852 83.6069 40.1575 83.0752 42.1822 82.2242L43.3151 81.8825L43.4251 81.5324C42.6432 80.7458 34.7626 79.0732 32.9344 78.4867C28.8034 77.1616 21.7988 73.6341 18.2177 73.2139Z"/>
</svg>
