<?xml version="1.0" encoding="utf-8" ?><svg xmlns="http://www.w3.org/2000/svg" xmlns:xlink="http://www.w3.org/1999/xlink" width="320" height="320" viewBox="0 0 320 320"><path d="M109.464 240.079C116.27 239.825 123.127 239.986 129.941 239.984L166.291 239.98L194.174 239.984C199.118 239.986 204.159 239.761 209.087 240.076C211.161 240.208 213.516 240.373 215.257 241.573C217.608 243.194 219.238 245.316 219.727 248.178C220.153 250.669 219.709 253.599 218.201 255.667C216.37 258.178 213.757 259.514 210.746 259.954C204.389 260.365 197.863 260.09 191.492 260.091L156.262 260.095L126.614 260.098C121.199 260.105 115.587 260.414 110.193 259.981C107.839 259.792 106.019 259.507 104.049 258.077C101.967 256.566 100.537 254.342 100.137 251.791C99.7295 249.189 100.324 246.109 101.926 243.989C103.865 241.421 106.39 240.502 109.464 240.079Z"/><path d="M109.464 270.08C116.397 269.82 123.384 269.986 130.325 269.984L167.334 269.98L194.7 269.985C199.524 269.986 204.456 269.751 209.261 270.087C211.424 270.238 213.631 270.434 215.442 271.701C217.705 273.284 219.255 275.424 219.725 278.178C220.151 280.67 219.709 283.598 218.2 285.666C216.375 288.168 213.771 289.513 210.768 289.953C204.308 290.367 197.681 290.088 191.201 290.09L155.66 290.093L126.089 290.11C120.691 290.112 115.093 290.408 109.718 289.938C107.509 289.745 105.834 289.387 103.999 288.041C101.919 286.516 100.505 284.274 100.126 281.713C99.744 279.136 100.338 276.087 101.926 273.988C103.868 271.422 106.389 270.502 109.464 270.08Z"/><path d="M151.289 0L168.62 0C171.851 1.13651 175.673 1.1123 179.041 1.79102C188.625 3.65508 197.883 6.91697 206.518 11.4722C230.192 24.0417 247.855 45.5578 255.572 71.2266C263.305 96.6053 260.77 124.005 248.512 147.534C243.966 156.299 238.666 164.657 234.202 173.466C231.512 178.891 229.162 184.477 227.164 190.193C225.196 195.776 223.778 201.578 222.652 207.385C222.212 209.655 221.768 211.95 221.496 214.246C221.119 217.427 221.496 221.624 219.921 224.481C218.616 226.848 216.386 228.842 213.753 229.568C209.694 230.688 200.655 230.096 196.222 230.095L167.645 230.089L129.323 230.085C122.759 230.087 116.068 230.398 109.518 230.032C107.499 229.92 105.574 229.67 103.793 228.637C102.127 227.671 100.644 226.091 99.8538 224.327C98.3846 221.05 97.3951 210.158 96.5047 205.778C94.1829 194.284 90.3079 183.16 84.9862 172.711C77.2924 157.611 67.8012 143.924 63.3085 127.346C61.2038 119.58 60.2698 111.521 60.0572 103.492C59.5464 84.2023 63.1387 67.5161 72.8103 50.6932C85.227 29.0956 105.414 11.9229 129.431 4.70626C133.134 3.59364 137.002 2.49533 140.806 1.81871C144.174 1.21988 147.755 0.989504 151.044 0.0701681L151.289 0ZM162.875 206.99L187.972 207.005C192.643 207.005 197.762 207.427 202.371 206.599C203.974 206.31 205.048 205.959 206.237 204.794C207.305 203.748 207.993 202.52 208.42 201.093C209.216 198.429 209.211 195.447 209.607 192.695C210.266 188.314 211.2 183.978 212.403 179.714C220.553 151.103 239.909 137.611 239.909 104.565C239.909 82.2286 231.51 61.6356 215.717 45.8593C200.802 31.126 180.641 22.9283 159.676 23.0731C158.906 23.0739 158.136 23.0865 157.366 23.1108C134.318 24.5064 114.974 33.0384 99.5521 50.4439C84.6594 67.252 78.8464 87.4146 80.2287 109.542C82.0438 138.598 98.7625 151.915 106.674 177.441C108.117 182.193 109.256 187.031 110.086 191.927C110.593 195.084 110.69 198.541 111.667 201.586C112.09 202.902 112.772 204.143 113.815 205.069C115.248 206.341 117.678 206.679 119.517 206.871C124.357 207.377 129.564 207.006 134.436 206.999L162.875 206.99Z"/><path d="M119.981 300.017L170.715 299.992C180.502 299.993 190.313 299.854 200.096 300.073C199.222 306.505 197.633 311.594 192.267 315.745C189.09 318.202 186.181 318.271 183.649 320L136.323 320C136.272 319.971 136.221 319.941 136.169 319.913C134.462 318.987 132.51 318.573 130.757 317.741C126.191 315.574 122.439 311.064 120.975 306.266C120.354 304.231 120.11 302.134 119.981 300.017Z"/></svg>