<svg xmlns="http://www.w3.org/2000/svg" xml:space="preserve" id="svg3390" width="100" height="100" viewBox="0 0 100 100"><path id="path13" d="M60.25 63.65625V58.3125s6.1231-8.05187 7.39993-12.81706c.90532-3.3787.90532-7.11496 0-10.49365-.44739-1.66969-1.5337-3.12492-2.59287-4.491-1.53949-1.98556-3.3821-3.75646-5.38303-5.27592-.87004-.66068-1.829-1.22062-2.8383-1.63869-1.63203-.67601-3.36754-1.14104-5.11893-1.37161-1.20812-.15906-2.44752-.15906-3.65564 0-1.50962.19874-3.00556.59958-4.4123 1.18227-1.1336.46955-2.21438 1.09354-3.18782 1.84049-2.02095 1.55072-3.853 3.38278-5.40373 5.40373-1.0047 1.30935-2.04845 2.6937-2.4756 4.28786-.94854 3.54001-.94748 7.45438 0 10.99467 1.23137 4.60107 7.13704 12.19141 7.13704 12.19141v5.5c6.84038.07222 13.68855.03125 20.53125.03125z" style="fill:#fff;stroke:#000;stroke-width:3;stroke-dasharray:none;stroke-opacity:1;fill-opacity:.7520436"/><path id="path14" d="M38.7304 69.9375h22.5392" style="fill:none;stroke:#000;stroke-width:3;stroke-dasharray:none;stroke-opacity:1"/><path id="path15" d="M39.04733 76.3125h21.90533" style="fill:none;stroke:#000;stroke-width:3;stroke-dasharray:none;stroke-opacity:1"/><path id="path16" d="m41.4804 80.9375 3.42049 3.8125h9.5429L58.5 80.9375Z" style="fill:#000;fill-opacity:1;stroke:none;stroke-width:3;stroke-dasharray:none;stroke-opacity:1"/></svg>