<?xml version="1.0" encoding="utf-8" ?>
<svg xmlns="http://www.w3.org/2000/svg" xmlns:xlink="http://www.w3.org/1999/xlink" width="100" height="100">
	<path d="M39.2845 34.6984Q39.6814 36.3404 40.1434 37.9652C39.6885 38.9287 39.0723 40.4141 38.1659 41.0306L37.9242 40.6219L37.7284 40.6456C37.3778 40.1531 37.3458 39.7612 36.9426 39.3078C37.5957 38.4935 38.7361 37.8201 38.8736 36.7242C39.1699 36.2076 39.1969 35.2966 39.2845 34.6984Z"/>
	<path d="M50.134 56.7384C49.875 55.1234 48.234 47.9261 48.6702 46.8622L49.0274 46.9315C50.2761 48.5048 50.9825 50.9678 51.7617 52.8302C51.1787 53.2672 50.8385 53.4662 50.7156 54.2372C50.5743 55.1236 50.7564 55.9968 50.134 56.7384Z"/>
	<path d="M19.8339 48.1601L20.0419 48.354C20.1046 48.5473 20.1497 48.7417 20.1503 48.9461C20.1585 51.8818 19.0057 57.378 18.0134 60.1358C17.1804 62.4511 4.88185 86.5577 3.92658 87.4759C3.60998 87.7802 3.52269 87.7473 3.09471 87.7403L2.46885 86.8946Q1.81682 86.2353 1.17428 85.5668C1.01723 84.9797 0.952423 84.6759 1.18146 84.084C1.74946 82.6163 2.71614 81.1135 3.45586 79.7146L8.50742 70.2084C12.3849 62.9101 16.0072 55.4866 19.8339 48.1601Z"/>
	<path d="M32.2151 25.0337L36.6369 25.0718C38.7431 28.7931 39.1142 30.4624 39.2845 34.6984C39.1969 35.2966 39.1699 36.2076 38.8736 36.7242C38.7361 37.8201 37.5957 38.4935 36.9426 39.3078C37.3458 39.7612 37.3778 40.1531 37.7284 40.6456L37.9242 40.6219L38.1659 41.0306C37.6263 41.5906 37.0066 42.1341 36.8297 42.9203C36.9185 44.8855 39.5093 46.6546 40.885 47.9589C41.3529 49.4091 41.4982 50.8026 41.6165 52.3165C40.487 54.4389 38.5024 56.3084 37.1484 58.3453C40.7378 63.7159 43.088 63.7472 44.1378 70.9362C43.2334 70.0261 42.473 68.8949 41.593 67.9359C39.2219 65.3522 36.6755 62.8415 34.5492 60.0509C30.9841 63.3113 27.7166 66.8983 24.1485 70.1311C25.8431 62.7205 27.3217 63.0785 31.7057 57.6111C29.7269 55.6965 27.9398 53.7665 26.3318 51.5301C27.7303 47.325 29.4334 45.9011 32.5528 42.9019C31.3457 41.4929 29.3185 40.3489 28.7767 38.4782C28.244 36.639 29.8706 30.2454 30.6049 28.2761C31.023 27.1547 31.6457 26.0844 32.2151 25.0337ZM34.2175 44.4248C32.9983 45.7899 29.2485 48.3282 29.3296 50.1864C29.3992 51.7823 32.7215 54.3432 33.9289 55.41C34.1562 55.6109 34.4105 55.7849 34.6714 55.9393C36.3642 54.0397 38.225 52.1695 39.784 50.1628C38.632 48.8088 35.6605 45.2015 34.2175 44.4248ZM34.5392 28.8689C33.4616 30.5681 30.2488 35.2279 30.0402 36.868C30.6116 38.4194 32.8272 40.6001 34.314 41.3014C34.5058 41.3919 34.6897 41.4109 34.8979 41.3889C35.6378 40.7461 36.2851 40.0321 36.9426 39.3078C37.5957 38.4935 38.7361 37.8201 38.8736 36.7242C37.3136 34.1703 36.0736 31.4312 34.5392 28.8689Z"/>
	<path d="M51.7617 52.8302C52.7035 54.4646 53.9339 57.3593 55.3653 58.4871C55.5441 58.42 55.7441 58.3312 55.8631 58.1757C56.7231 57.052 57.4156 55.6332 58.2221 54.4434C62.1211 48.691 66.1123 42.0139 70.5791 36.7658C71.8843 40.4754 74.6346 44.2215 76.6393 47.6411C78.9271 51.5437 98.75 84.4335 98.7865 85.9895C98.7905 86.1611 98.7695 86.2474 98.6946 86.4024C98.211 87.4031 97.2398 88.227 96.4678 89.0149L79.8249 60.58C77.0027 55.7405 74.334 50.6905 71.3028 45.9915C70.9868 45.5017 70.4857 44.6284 69.9087 44.4667C69.8818 44.4592 69.8545 44.4533 69.8274 44.4466C68.2772 46.1974 67.0187 48.3016 65.6998 50.2329C62.8915 54.345 60.1699 58.5549 57.2036 62.554C58.7192 65.5145 62.1888 70.5921 62.8796 73.5208C63.1003 74.4567 62.9297 75.8219 62.6377 76.7233C62.5476 77.0016 62.3198 77.1747 62.1196 77.3841C61.4093 77.3735 61.0745 77.1359 60.5776 76.6147C59.0034 74.9634 50.8591 59.2578 50.134 56.7384C50.7564 55.9968 50.5743 55.1236 50.7156 54.2372C50.8385 53.4662 51.1787 53.2672 51.7617 52.8302Z"/>
	<path d="M32.2242 0L35.1682 0C36.5115 0.913343 47.7143 9.58398 48.0857 10.4939C47.6213 10.9844 46.5715 10.6041 45.8296 10.8252C45.2097 11.7859 45.4306 17.9912 45.4742 19.4924C46.0921 20.1552 46.9954 19.6748 47.5934 20.2636C47.6578 20.3271 47.6488 20.2978 47.6476 20.3705C47.6103 22.5767 44.5812 23.3657 43.2625 24.6615C43.2573 26.5669 43.7267 28.5188 43.9968 30.4042L45.9607 43.4168Q47.2914 52.7069 48.7469 61.9781C49.2692 65.5022 49.6235 69.0373 50.378 72.5247Q47.9017 72.4873 45.4252 72.5001C45.4508 65.8721 43.8168 59.0247 42.8873 52.4516C41.5402 42.9263 40.5278 33.2766 38.8867 23.8024Q34.2496 23.6951 29.6117 23.7545C29.2861 27.7844 28.087 32.0535 27.5706 36.1392C26.1648 47.2605 25.163 58.5202 23.2552 69.566C23.0965 70.4848 22.8958 71.7965 22.0694 72.3513C21.4245 72.7844 19.5422 72.4711 18.8056 72.3215C18.3001 71.796 18.4295 71.3298 18.4877 70.6297C18.793 66.9589 19.7242 63.1386 20.2777 59.4754L23.5658 37.0266C24.1448 33.3267 25.6593 27.9503 25.2509 24.3198C24.7256 23.6647 23.4266 23.8341 22.5708 23.2507C21.6351 22.6129 20.5362 21.6588 20.3368 20.5013C20.3013 20.2946 20.4384 20.1794 20.5527 20.0138L22.0294 20.0672L22.3964 19.7043C22.694 17.9512 22.8808 12.6569 22.3713 11C21.7022 10.6174 20.941 10.8479 20.174 10.7256C20.4104 9.07305 30.2576 1.48759 32.2242 0ZM25.5244 10.679C25.5703 13.7613 25.6861 16.8913 25.4603 19.9686C31.093 20.05 36.7388 19.9246 42.3671 20.0594Q42.3298 15.3815 42.4133 10.7042C36.8553 10.8002 31.0566 11.1239 25.5244 10.679Z"/>
</svg>
