<?xml version="1.0" encoding="utf-8" ?>
<svg xmlns="http://www.w3.org/2000/svg" xmlns:xlink="http://www.w3.org/1999/xlink" width="100" height="100">
	<path d="M33.5957 21.0608C33.9649 21.1893 34.289 21.4555 34.5101 21.7772C37.5774 26.2396 53.4153 58.0598 54.8315 58.8655C55.9909 58.3359 68.2851 39.5383 70.5366 36.8129C72.1155 40.7536 74.8844 44.6571 77.0359 48.329L91.5958 73.1617C94.0589 77.361 97.0091 81.6406 98.9823 86.0687C98.2166 87.1132 97.3173 88.0972 96.4889 89.0952L79.5921 60.138Q76.2687 54.3374 72.7681 48.6419C72.1559 47.6316 71.6851 46.5052 71.0289 45.5308C70.6792 45.0116 70.4356 44.6625 69.8515 44.427C68.0224 46.4871 66.5264 49.0245 64.9687 51.3007Q60.8745 57.2115 56.9099 63.2101L58.1602 65.3318C59.7856 68.599 61.6049 71.861 63.4431 75.0138C62.5763 76.0187 61.4897 76.8963 60.5053 77.7888C58.4831 73.2513 55.7741 68.8209 53.4005 64.4521L40.338 40.3817C39.4861 38.8128 35.1466 30.1088 34.4049 29.3145C34.3183 29.2218 34.0232 29.1146 33.8992 29.0496C33.3681 29.3324 27.9908 40.1074 27.2632 41.518L11.8246 71.3618C9.08454 76.6439 5.83049 82.0681 3.62423 87.5799C2.58014 86.823 1.59655 85.9953 0.605882 85.1708C2.74563 80.4153 5.40436 75.7843 7.80725 71.1468L24.6136 38.685C27.6232 32.8628 30.931 27.0424 33.5957 21.0608Z"/>
</svg>
