<?xml version="1.0" encoding="utf-8" ?>
<svg xmlns="http://www.w3.org/2000/svg" xmlns:xlink="http://www.w3.org/1999/xlink" width="100" height="100">
	<path d="M90.4853 17.2578C89.178 16.3854 87.9017 16.2837 86.5898 15.5873L86.4925 14.9144C86.5055 14.8995 86.5178 14.8841 86.5315 14.8699C86.9473 14.4383 87.814 14.3289 88.3818 14.3111C90.1839 14.2547 92.4686 15.6652 93.7724 16.8742C92.9067 17.5532 91.5383 16.8786 90.4853 17.2578Z"/>
	<defs>
		<linearGradient id="gradient_0" gradientUnits="userSpaceOnUse" x1="91.875031" y1="18.678116" x2="95.134468" y2="18.963333">
			<stop offset="0" stop-color="black" stop-opacity="0.92941177"/>
			<stop offset="1" stop-color="black" stop-opacity="0.96470588"/>
		</linearGradient>
	</defs>
	<path fill="url(#gradient_0)" d="M93.7724 16.8742C95.5541 18.0676 96.3767 19.482 96.7893 21.5591C96.8917 22.0743 96.9639 22.5584 96.8809 23.0835L96.6219 23.3925C95.5312 23.0818 93.8095 20.1758 92.8913 19.2616C92.1614 18.5348 91.3022 17.8845 90.4853 17.2578C91.5383 16.8786 92.9067 17.5532 93.7724 16.8742Z"/>
	<path d="M84.6433 16.9182C85.2962 17.4292 85.7743 18.7402 86.3212 19.4687C88.9669 22.9934 91.2646 24.2606 95.6172 24.88Q93.8431 27.392 91.5255 29.4134C91.0086 29.462 90.4371 29.5052 89.9427 29.6682C88.145 30.2607 83.1849 36.4775 82.2326 38.3388C84.2312 44.5233 81.7363 53.7141 83.396 58.7634C84.536 62.2319 87.2878 65.8666 89.1536 69.0199C90.5373 71.3585 98.7393 84.5867 98.7569 85.9034C98.7712 86.9796 97.193 88.2958 96.495 89.0239C94.8224 86.2219 80.5399 61.3057 79.9335 60.772C79.861 60.7081 79.6175 60.6348 79.5207 60.5928C79.1862 61.0059 78.8688 61.4287 78.5536 61.8565C73.6271 63.5198 67.0055 63.3391 61.8789 62.6195C60.6416 62.4458 59.1636 61.7006 57.9524 61.8497C57.8432 61.939 57.5552 62.1199 57.521 62.2452C56.9007 64.5162 62.154 72.7199 63.4657 75.0345C62.5748 76.0658 61.5087 76.941 60.4889 77.8408C56.4336 69.7135 51.9382 61.7685 47.6165 53.7795C43.3855 45.958 39.2845 38.0107 34.9169 30.2691C34.6384 29.7754 34.3722 29.2462 33.8172 29.0906C32.1498 31.0934 29.6607 36.889 28.273 39.5671L11.9908 71.0858C9.19687 76.4895 6.23359 81.8494 3.67659 87.3676C2.79428 86.8871 1.47432 86.3104 1.08585 85.3365C0.876957 84.8128 1.10569 84.253 1.31633 83.7616C2.62678 80.705 4.36145 77.7403 5.8971 74.7884L14.5991 58.0671L26.3219 35.3857C28.6517 30.8513 30.8845 26.2252 33.3779 21.7798C33.5131 21.5388 33.5917 21.3198 33.8639 21.211C35.0942 21.6854 51.2039 52.8999 53.4572 56.8189L53.7646 56.8935C54.8897 53.4206 53.646 45.989 54.2014 41.8664C54.581 39.0489 55.8161 36.5912 58.1073 34.8547C62.457 31.5581 68.9106 31.8304 74.0249 32.5439Q77.3307 28.7828 80.4688 24.8807C80.9728 24.2464 81.3907 23.8105 81.2986 22.9792C81.0362 20.612 83.241 18.6712 84.6433 16.9182ZM59.4137 48.5598C58.7047 50.8919 59.2447 57.453 59.0931 60.4521C61.1785 61.2173 63.3981 61.6025 65.5669 62.0586C65.4933 58.6696 65.7475 55.1045 65.4025 51.7505L71.9354 51.826C71.5918 54.25 71.736 56.7666 71.7556 59.2096L71.5939 61.9843C73.4094 61.6948 76.7897 61.5512 77.9371 59.9509C78.8535 58.6728 78.3035 50.6422 78.3568 48.5827C72.6897 49.9437 65.0226 50.3683 59.4137 48.5598ZM67.3485 36.6026C64.2381 36.9147 61.8682 37.5956 59.7642 40.0474C59.572 40.789 58.8262 42.9075 59.2488 43.5811C59.6185 44.1704 60.6867 44.323 61.328 44.4427C64.2692 44.9919 67.2873 45.0592 70.2702 45.032C73.3607 44.8875 76.5147 44.5519 79.4773 43.6232C76.6853 42.6534 72.6899 41.7315 71.2783 38.7983C70.9161 38.0457 70.7157 37.1845 70.0378 36.6472C69.1625 36.3864 68.2433 36.5253 67.3485 36.6026ZM81.938 25.115C80.2142 27.027 72.3888 35.4003 72.147 37.4232C72.4731 38.5808 73.3846 39.1311 74.3737 39.6845Q75.238 40.1735 76.1597 40.5434C78.3764 37.1973 83.3446 30.9112 86.0509 28.0657C85.2391 27.6657 81.9814 25.1217 81.938 25.115ZM59.1781 45.5372C59.1675 45.9189 59.0725 46.1667 59.346 46.4578C60.6515 47.8476 66.3645 47.9334 68.3626 47.9399C71.618 47.9503 74.9566 47.461 78.1521 46.8555L78.2614 46.2454C77.9637 45.9092 77.9443 45.8786 77.4885 45.8501C75.6622 45.7359 73.6369 46.4248 71.7867 46.5626C67.5359 46.8793 63.3437 46.3425 59.1781 45.5372Z"/>
</svg>
