<?xml version="1.0" encoding="utf-8" ?>
<svg xmlns="http://www.w3.org/2000/svg" xmlns:xlink="http://www.w3.org/1999/xlink" width="100" height="100">
	<path d="M54.1484 46.3935C54.651 46.3617 55.1989 46.3888 55.6534 46.6332C56.0441 46.8432 56.3232 47.2322 56.4367 47.6482C56.6885 48.5704 56.2615 49.3516 55.8191 50.1353C55.1577 50.1521 54.6325 50.0927 53.9988 49.8996C53.5828 49.5118 53.3146 49.3299 53.2192 48.7335C53.0819 47.8758 53.6755 47.0461 54.1484 46.3935Z"/>
	<path d="M53.598 26.0517C54.9391 25.9779 56.1745 25.9915 57.4629 26.4488C59.2136 27.0703 60.7006 28.2754 61.4997 29.9738Q61.654 30.2989 61.7756 30.6375Q61.8971 30.9762 61.9846 31.3252Q62.0722 31.6742 62.1249 32.0302Q62.1776 32.3861 62.195 32.7456Q62.2123 33.105 62.1941 33.4643Q62.176 33.8237 62.1225 34.1795Q62.0689 34.5353 61.9806 34.8842Q61.8923 35.233 61.77 35.5714C60.8426 38.1392 58.9248 39.3619 56.5749 40.478C56.5613 41.3605 56.631 42.4242 56.1798 43.2099C55.8605 43.766 55.543 44.1986 54.9003 44.3751C54.7181 44.3005 54.411 44.2237 54.2805 44.0834C52.9439 42.6465 53.2047 41.2763 53.2755 39.4375C53.2798 39.2235 53.2853 39.0032 53.3216 38.7918C53.6276 37.0084 56.5163 36.8464 57.815 35.8738C58.3983 35.437 58.7866 34.8177 58.8759 34.0905C59.0221 32.9003 58.6243 31.2211 57.872 30.279C55.3265 27.0915 51.6587 32.053 49.0789 31.7828C48.9564 31.6865 48.6518 31.5056 48.6127 31.3656C48.4057 30.6247 48.419 30.0306 48.8065 29.3479C49.9147 27.3954 51.5289 26.6317 53.598 26.0517Z"/>
	<path d="M33.5971 21.0624C34.0526 21.2312 34.2861 21.4584 34.5499 21.8505C36.4947 24.7406 38.0431 28.1966 39.7072 31.2723L49.9842 50.3217C51.4642 53.0915 52.8143 56.3568 54.729 58.8313C55.7891 58.616 68.3863 39.4152 70.5415 36.7991C72.1651 40.7874 74.8984 44.6862 77.0792 48.4078L91.551 73.0853C94.0165 77.2883 96.9867 81.6255 98.9789 86.0526C98.2266 87.1109 97.3169 88.1032 96.4889 89.1062L79.9401 60.7412Q76.5521 54.8513 73.0215 49.0459C72.2913 47.831 71.6985 46.5376 70.9142 45.3555C70.6416 44.9446 70.403 44.6226 69.9445 44.4122C68.3853 45.5222 58.6504 60.5053 56.924 63.2139L58.1534 65.3228C59.7711 68.5907 61.5988 71.8508 63.4322 75.0033C62.5799 76.0113 61.4901 76.8884 60.5118 77.7772C58.673 73.8806 34.9707 29.8693 34.1852 29.1329L33.7373 29.1705C31.8069 32.1763 30.3144 35.5921 28.6795 38.7748L19.7165 56.1214L9.25784 76.3225C7.35439 80.0091 5.1785 83.7383 3.62192 87.5776C2.57935 86.8199 1.59706 85.9994 0.610734 85.1708C2.81738 80.1299 5.68935 75.2312 8.22742 70.3391L24.7816 38.3526C27.7322 32.6411 30.9871 26.9324 33.5971 21.0624Z"/>
</svg>
