<?xml version="1.0" encoding="utf-8" ?>
<svg xmlns="http://www.w3.org/2000/svg" xmlns:xlink="http://www.w3.org/1999/xlink" width="100" height="100">
	<path d="M80.559 67.9903C81.2542 68.121 81.4614 68.0769 81.9295 68.6405C82.1879 69.7788 81.9817 70.8565 81.9579 72.0013L77.844 71.9629C78.6076 71.681 79.5437 71.6338 80.3512 71.5165C80.2635 71.2386 80.1776 70.9339 80.1663 70.6417C80.1292 69.6791 80.2049 69.3444 80.8398 68.6857L80.559 67.9903Z"/>
	<path d="M70.4662 80.0372C71.1352 80.1129 71.3786 80.0646 71.8831 80.5404C72.2801 81.6213 71.9867 82.8747 71.9564 84.001L67.5942 83.9606C68.3944 83.652 69.3532 83.6716 70.2031 83.5349C70.5163 82.9873 70.2368 82.0021 70.1435 81.3903C70.4546 81.1824 70.6095 81.0363 70.7673 80.6948L70.4662 80.0372Z"/>
	<path d="M91.3511 56.0634C92.5787 56.0659 93.8254 56.0229 95.0485 56.1372L94.9603 60.0004L91.0916 59.9579C91.5847 59.7819 92.593 59.782 92.986 59.5375C93.6111 59.1487 93.069 58.1595 93.1958 57.6163C93.2468 57.3977 93.7096 56.8901 93.8584 56.6798C93.5732 56.2763 91.9487 56.2086 91.3511 56.0634Z"/>
	<path d="M28.0941 80.0681C42.2103 79.8887 56.3483 80.0209 70.4662 80.0372L70.7673 80.6948C70.6095 81.0363 70.4546 81.1824 70.1435 81.3903C70.2368 82.0021 70.5163 82.9873 70.2031 83.5349C69.3532 83.6716 68.3944 83.652 67.5942 83.9606C54.3955 84.3284 41.1469 83.8803 27.9393 84.0299L28.0941 80.0681Z"/>
	<path d="M18.094 68.0694C32.4948 67.9114 46.9081 68.0341 61.3103 68.0397C67.7139 68.0422 74.1627 68.2065 80.559 67.9903L80.8398 68.6857C80.2049 69.3444 80.1292 69.6791 80.1663 70.6417C80.1776 70.9339 80.2635 71.2386 80.3512 71.5165C79.5437 71.6338 78.6076 71.681 77.844 71.9629C71.7089 72.1505 65.5381 72.0134 59.3976 72.0112L17.9402 72.0286L18.094 68.0694Z"/>
	<path d="M5.09721 56.0717C18.9854 55.8762 32.8968 56.0264 46.7869 56.0214C61.637 56.016 76.5028 55.8672 91.3511 56.0634C91.9487 56.2086 93.5732 56.2763 93.8584 56.6798C93.7096 56.8901 93.2468 57.3977 93.1958 57.6163C93.069 58.1595 93.6111 59.1487 92.986 59.5375C92.593 59.782 91.5847 59.7819 91.0916 59.9579C82.8916 60.197 74.6482 60.0043 66.443 60.0015C45.9537 59.9946 25.4348 59.768 4.94889 60.0391L5.09721 56.0717Z"/>
</svg>
