<svg xmlns="http://www.w3.org/2000/svg" width="780" height="629" viewBox="0 0 780 629" fill="none" role="img" aria-labelledby="title desc">
  <title id="title">LocalGen built-in bot spectrum</title>
  <desc id="desc">Complexity and status summary for 13 built-in LocalGen bots.</desc>
  <defs>
<linearGradient id="background" x1="0" x2="1" y1="0" y2="1">
  <stop offset="0%" stop-color="#14181e" />
  <stop offset="100%" stop-color="#101318" />
</linearGradient>
<linearGradient id="panel" x1="0" x2="0" y1="0" y2="1">
  <stop offset="0%" stop-color="#1e242c" />
  <stop offset="100%" stop-color="#181d24" />
</linearGradient>
<linearGradient id="accentLine" x1="0" x2="1" y1="0" y2="0">
  <stop offset="0%" stop-color="#38c8b5" />
  <stop offset="100%" stop-color="#f2bd64" />
</linearGradient>
<linearGradient id="accentArea" x1="0" x2="0" y1="0" y2="1">
  <stop offset="0%" stop-color="#38c8b5" stop-opacity="0.26" />
  <stop offset="100%" stop-color="#38c8b5" stop-opacity="0.02" />
</linearGradient>
<pattern id="grid" width="44" height="44" patternUnits="userSpaceOnUse">
  <path d="M 44 0 L 0 0 0 44" fill="none" stroke="#293239" stroke-width="1" />
</pattern>
<filter id="softShadow" x="-20%" y="-20%" width="140%" height="150%">
  <feDropShadow dx="0" dy="10" stdDeviation="14" flood-color="#000000" flood-opacity="0.24" />
</filter>
  </defs>
  <g font-family="Inter, ui-sans-serif, system-ui, -apple-system, BlinkMacSystemFont, Segoe UI, sans-serif">
<rect width="780" height="629" rx="28" fill="url(#background)" />
<rect width="780" height="629" rx="28" fill="url(#grid)" opacity="0.3" />
<g filter="url(#softShadow)"><rect x="18" y="18" width="744" height="593" rx="22" fill="#181d24" stroke="#364149" stroke-width="1" /></g>
<rect x="36" y="28" width="162" height="48" rx="12" fill="#1e242c" stroke="#364149" stroke-width="1" /><text x="52" y="48" font-size="10" fill="#a3adb2" font-weight="700" letter-spacing="1.25">BUILT-IN</text><text x="52" y="66" font-size="15" fill="#38c8b5" font-weight="750">13</text><rect x="214" y="28" width="162" height="48" rx="12" fill="#1e242c" stroke="#364149" stroke-width="1" /><text x="230" y="48" font-size="10" fill="#a3adb2" font-weight="700" letter-spacing="1.25">ENABLED</text><text x="230" y="66" font-size="15" fill="#68d391" font-weight="750">10</text><rect x="392" y="28" width="190" height="48" rx="12" fill="#1e242c" stroke="#364149" stroke-width="1" /><text x="408" y="48" font-size="10" fill="#a3adb2" font-weight="700" letter-spacing="1.25">COMPILED-IN</text><text x="408" y="66" font-size="15" fill="#75aadb" font-weight="750">10</text>
<text x="36" y="118" font-size="23" font-weight="750" fill="#f1f5f6">Built-in bot spectrum</text>
<text x="36" y="142" font-size="12" fill="#a3adb2" text-anchor="start">Compare strategy complexity and worst-case turn cost across LocalGen Bots.</text>
<text x="290" y="170" text-anchor="middle" font-size="11" fill="#a3adb2" font-weight="700" letter-spacing="1.2">LOW</text><line x1="290" y1="180" x2="290" y2="581" stroke="#293239" stroke-dasharray="3 8" /><text x="430" y="170" text-anchor="middle" font-size="11" fill="#a3adb2" font-weight="700" letter-spacing="1.2">MEDIUM</text><line x1="430" y1="180" x2="430" y2="581" stroke="#293239" stroke-dasharray="3 8" /><text x="570" y="170" text-anchor="middle" font-size="11" fill="#a3adb2" font-weight="700" letter-spacing="1.2">HIGH</text><line x1="570" y1="180" x2="570" y2="581" stroke="#293239" stroke-dasharray="3 8" />
<text x="40" y="198" font-size="12" fill="#f1f5f6" font-weight="650">KtqBot</text><rect x="242" y="181" width="96" height="21" rx="10.5" fill="#75aadb" fill-opacity="0.11" stroke="#75aadb" stroke-opacity="0.48" /><text x="290" y="195" text-anchor="middle" font-size="10" fill="#75aadb" font-weight="750">Low</text><text x="674" y="198" text-anchor="end" font-size="10" fill="#a3adb2">O(n)</text><circle cx="704" cy="193" r="4" fill="#68d391" /><text x="716" y="197" font-size="9" fill="#68d391" font-weight="700">ENABLED</text><text x="40" y="227" font-size="12" fill="#f1f5f6" font-weight="650">SmartRandomBot</text><rect x="242" y="210" width="96" height="21" rx="10.5" fill="#75aadb" fill-opacity="0.11" stroke="#75aadb" stroke-opacity="0.48" /><text x="290" y="224" text-anchor="middle" font-size="10" fill="#75aadb" font-weight="750">Low</text><text x="674" y="227" text-anchor="end" font-size="10" fill="#a3adb2">O(n)</text><circle cx="704" cy="222" r="4" fill="#68d391" /><text x="716" y="226" font-size="9" fill="#68d391" font-weight="700">ENABLED</text><text x="40" y="256" font-size="12" fill="#f1f5f6" font-weight="650">DummyBot</text><rect x="242" y="239" width="96" height="21" rx="10.5" fill="#75aadb" fill-opacity="0.11" stroke="#75aadb" stroke-opacity="0.48" /><text x="290" y="253" text-anchor="middle" font-size="10" fill="#75aadb" font-weight="750">Low</text><text x="674" y="256" text-anchor="end" font-size="10" fill="#a3adb2">O(n)</text><circle cx="704" cy="251" r="4" fill="#a3adb2" /><text x="716" y="255" font-size="9" fill="#a3adb2" font-weight="700">DISABLED</text><text x="40" y="285" font-size="12" fill="#f1f5f6" font-weight="650">XrzBot</text><rect x="242" y="268" width="96" height="21" rx="10.5" fill="#75aadb" fill-opacity="0.11" stroke="#75aadb" stroke-opacity="0.48" /><text x="290" y="282" text-anchor="middle" font-size="10" fill="#75aadb" font-weight="750">Low</text><text x="674" y="285" text-anchor="end" font-size="10" fill="#a3adb2">O(n)</text><circle cx="704" cy="280" r="4" fill="#a3adb2" /><text x="716" y="284" font-size="9" fill="#a3adb2" font-weight="700">DISABLED</text><text x="40" y="314" font-size="12" fill="#f1f5f6" font-weight="650">GcBot</text><rect x="382" y="297" width="96" height="21" rx="10.5" fill="#f2bd64" fill-opacity="0.11" stroke="#f2bd64" stroke-opacity="0.48" /><text x="430" y="311" text-anchor="middle" font-size="10" fill="#f2bd64" font-weight="750">Medium</text><text x="674" y="314" text-anchor="end" font-size="10" fill="#a3adb2">O(n)</text><circle cx="704" cy="309" r="4" fill="#68d391" /><text x="716" y="313" font-size="9" fill="#68d391" font-weight="700">ENABLED</text><text x="40" y="343" font-size="12" fill="#f1f5f6" font-weight="650">SzlyBot</text><rect x="382" y="326" width="96" height="21" rx="10.5" fill="#f2bd64" fill-opacity="0.11" stroke="#f2bd64" stroke-opacity="0.48" /><text x="430" y="340" text-anchor="middle" font-size="10" fill="#f2bd64" font-weight="750">Medium</text><text x="674" y="343" text-anchor="end" font-size="10" fill="#a3adb2">O(n)</text><circle cx="704" cy="338" r="4" fill="#68d391" /><text x="716" y="342" font-size="9" fill="#68d391" font-weight="700">ENABLED</text><text x="40" y="372" font-size="12" fill="#f1f5f6" font-weight="650">ZlyBot</text><rect x="382" y="355" width="96" height="21" rx="10.5" fill="#f2bd64" fill-opacity="0.11" stroke="#f2bd64" stroke-opacity="0.48" /><text x="430" y="369" text-anchor="middle" font-size="10" fill="#f2bd64" font-weight="750">Medium</text><text x="674" y="372" text-anchor="end" font-size="10" fill="#a3adb2">O(n)</text><circle cx="704" cy="367" r="4" fill="#68d391" /><text x="716" y="371" font-size="9" fill="#68d391" font-weight="700">ENABLED</text><text x="40" y="401" font-size="12" fill="#f1f5f6" font-weight="650">ZlyBot v2</text><rect x="382" y="384" width="96" height="21" rx="10.5" fill="#f2bd64" fill-opacity="0.11" stroke="#f2bd64" stroke-opacity="0.48" /><text x="430" y="398" text-anchor="middle" font-size="10" fill="#f2bd64" font-weight="750">Medium</text><text x="674" y="401" text-anchor="end" font-size="10" fill="#a3adb2">O(n log n)</text><circle cx="704" cy="396" r="4" fill="#68d391" /><text x="716" y="400" font-size="9" fill="#68d391" font-weight="700">ENABLED</text><text x="40" y="430" font-size="12" fill="#f1f5f6" font-weight="650">ZlyBot v2.1</text><rect x="382" y="413" width="96" height="21" rx="10.5" fill="#f2bd64" fill-opacity="0.11" stroke="#f2bd64" stroke-opacity="0.48" /><text x="430" y="427" text-anchor="middle" font-size="10" fill="#f2bd64" font-weight="750">Medium</text><text x="674" y="430" text-anchor="end" font-size="10" fill="#a3adb2">O(n log n)</text><circle cx="704" cy="425" r="4" fill="#68d391" /><text x="716" y="429" font-size="9" fill="#68d391" font-weight="700">ENABLED</text><text x="40" y="459" font-size="12" fill="#f1f5f6" font-weight="650">KutuBot</text><rect x="522" y="442" width="96" height="21" rx="10.5" fill="#ef8792" fill-opacity="0.11" stroke="#ef8792" stroke-opacity="0.48" /><text x="570" y="456" text-anchor="middle" font-size="10" fill="#ef8792" font-weight="750">High</text><text x="674" y="459" text-anchor="end" font-size="10" fill="#a3adb2">O(n log n)</text><circle cx="704" cy="454" r="4" fill="#68d391" /><text x="716" y="458" font-size="9" fill="#68d391" font-weight="700">ENABLED</text><text x="40" y="488" font-size="12" fill="#f1f5f6" font-weight="650">XiaruizeBot</text><rect x="522" y="471" width="96" height="21" rx="10.5" fill="#ef8792" fill-opacity="0.11" stroke="#ef8792" stroke-opacity="0.48" /><text x="570" y="485" text-anchor="middle" font-size="10" fill="#ef8792" font-weight="750">High</text><text x="674" y="488" text-anchor="end" font-size="10" fill="#a3adb2">O(kn^2)</text><circle cx="704" cy="483" r="4" fill="#68d391" /><text x="716" y="487" font-size="9" fill="#68d391" font-weight="700">ENABLED</text><text x="40" y="517" font-size="12" fill="#f1f5f6" font-weight="650">oimbot</text><rect x="522" y="500" width="96" height="21" rx="10.5" fill="#ef8792" fill-opacity="0.11" stroke="#ef8792" stroke-opacity="0.48" /><text x="570" y="514" text-anchor="middle" font-size="10" fill="#ef8792" font-weight="750">High</text><text x="674" y="517" text-anchor="end" font-size="10" fill="#a3adb2">O(n^2)</text><circle cx="704" cy="512" r="4" fill="#68d391" /><text x="716" y="516" font-size="9" fill="#68d391" font-weight="700">ENABLED</text><text x="40" y="546" font-size="12" fill="#f1f5f6" font-weight="650">LyBot</text><rect x="522" y="529" width="96" height="21" rx="10.5" fill="#ef8792" fill-opacity="0.11" stroke="#ef8792" stroke-opacity="0.48" /><text x="570" y="543" text-anchor="middle" font-size="10" fill="#ef8792" font-weight="750">High</text><text x="674" y="546" text-anchor="end" font-size="10" fill="#a3adb2">O(n^2)</text><circle cx="704" cy="541" r="4" fill="#a3adb2" /><text x="716" y="545" font-size="9" fill="#a3adb2" font-weight="700">DISABLED</text>
<text x="674" y="170" text-anchor="end" font-size="11" fill="#a3adb2" font-weight="700" letter-spacing="1.2">TIME</text>
<text x="704" y="170" font-size="11" fill="#a3adb2" font-weight="700" letter-spacing="1.2">STATUS</text>
<text x="36" y="607" font-size="11" fill="#a3adb2">13 documented Bots · 10 included in v6</text>
  </g>
</svg>
