<svg xmlns="http://www.w3.org/2000/svg" width="820" height="460" viewBox="0 0 820 460" fill="none" role="img" aria-labelledby="title desc">
  <title id="title">LocalGen project signal board</title>
  <desc id="desc">A strategy board with LocalGen project branch, toolchain, scale, and maintainer information.</desc>
  <defs>
<linearGradient id="background" x1="0" x2="1" y1="0" y2="1">
  <stop offset="0%" stop-color="#14181e" />
  <stop offset="100%" stop-color="#101318" />
</linearGradient>
<linearGradient id="panel" x1="0" x2="0" y1="0" y2="1">
  <stop offset="0%" stop-color="#1e242c" />
  <stop offset="100%" stop-color="#181d24" />
</linearGradient>
<linearGradient id="accentLine" x1="0" x2="1" y1="0" y2="0">
  <stop offset="0%" stop-color="#38c8b5" />
  <stop offset="100%" stop-color="#f2bd64" />
</linearGradient>
<linearGradient id="accentArea" x1="0" x2="0" y1="0" y2="1">
  <stop offset="0%" stop-color="#38c8b5" stop-opacity="0.26" />
  <stop offset="100%" stop-color="#38c8b5" stop-opacity="0.02" />
</linearGradient>
<pattern id="grid" width="44" height="44" patternUnits="userSpaceOnUse">
  <path d="M 44 0 L 0 0 0 44" fill="none" stroke="#293239" stroke-width="1" />
</pattern>
<filter id="softShadow" x="-20%" y="-20%" width="140%" height="150%">
  <feDropShadow dx="0" dy="10" stdDeviation="14" flood-color="#000000" flood-opacity="0.24" />
</filter>
  </defs>
  <g font-family="Inter, ui-sans-serif, system-ui, -apple-system, BlinkMacSystemFont, Segoe UI, sans-serif">
<rect width="820" height="460" rx="28" fill="url(#background)" />
<rect width="820" height="460" rx="28" fill="url(#grid)" opacity="0.3" />
<g filter="url(#softShadow)"><rect x="18" y="18" width="784" height="424" rx="22" fill="#181d24" stroke="#364149" stroke-width="1" /></g>
<text x="38" y="60" font-size="12" fill="#38c8b5" font-weight="750" letter-spacing="1.8">OFFLINE-FIRST</text>
<text x="38" y="96" font-size="30" fill="#f1f5f6" font-weight="750">Play, study, and extend</text>
<text x="38" y="128" font-size="30" fill="#f1f5f6" font-weight="750">Local Generals.io.</text>
<text x="38" y="158" font-size="12" fill="#a3adb2" text-anchor="start">Local matches, bundled maps, a map creator, and a parallel bot simulator</text><text x="38" y="176" font-size="12" fill="#a3adb2" text-anchor="start">on Qt 6.</text>
<rect x="42" y="194" width="46" height="46" rx="15" fill="#38c8b5" fill-opacity="0.18" stroke="#364149" /><rect x="96" y="194" width="46" height="46" rx="15" fill="#1e242c" fill-opacity="1" stroke="#364149" /><rect x="150" y="194" width="46" height="46" rx="15" fill="#1e242c" fill-opacity="1" stroke="#364149" /><rect x="204" y="194" width="46" height="46" rx="15" fill="#1e242c" fill-opacity="1" stroke="#364149" /><rect x="258" y="194" width="46" height="46" rx="15" fill="#1e242c" fill-opacity="1" stroke="#364149" /><rect x="312" y="194" width="46" height="46" rx="15" fill="#1e242c" fill-opacity="1" stroke="#364149" /><rect x="366" y="194" width="46" height="46" rx="15" fill="#1e242c" fill-opacity="1" stroke="#364149" /><rect x="42" y="248" width="46" height="46" rx="15" fill="#1e242c" fill-opacity="1" stroke="#364149" /><rect x="96" y="248" width="46" height="46" rx="15" fill="#1e242c" fill-opacity="1" stroke="#364149" /><rect x="150" y="248" width="46" height="46" rx="15" fill="#1e242c" fill-opacity="1" stroke="#364149" /><rect x="204" y="248" width="46" height="46" rx="15" fill="#38c8b5" fill-opacity="0.18" stroke="#364149" /><rect x="258" y="248" width="46" height="46" rx="15" fill="#1e242c" fill-opacity="1" stroke="#364149" /><rect x="312" y="248" width="46" height="46" rx="15" fill="#1e242c" fill-opacity="1" stroke="#364149" /><rect x="366" y="248" width="46" height="46" rx="15" fill="#1e242c" fill-opacity="1" stroke="#364149" /><rect x="42" y="302" width="46" height="46" rx="15" fill="#1e242c" fill-opacity="1" stroke="#364149" /><rect x="96" y="302" width="46" height="46" rx="15" fill="#1e242c" fill-opacity="1" stroke="#364149" /><rect x="150" y="302" width="46" height="46" rx="15" fill="#1e242c" fill-opacity="1" stroke="#364149" /><rect x="204" y="302" width="46" height="46" rx="15" fill="#1e242c" fill-opacity="1" stroke="#364149" /><rect x="258" y="302" width="46" height="46" rx="15" fill="#1e242c" fill-opacity="1" stroke="#364149" /><rect x="312" y="302" width="46" height="46" rx="15" fill="#a58bd4" fill-opacity="0.18" stroke="#364149" /><rect x="366" y="302" width="46" height="46" rx="15" fill="#1e242c" fill-opacity="1" stroke="#364149" /><rect x="42" y="356" width="46" height="46" rx="15" fill="#1e242c" fill-opacity="1" stroke="#364149" /><rect x="96" y="356" width="46" height="46" rx="15" fill="#1e242c" fill-opacity="1" stroke="#364149" /><rect x="150" y="356" width="46" height="46" rx="15" fill="#75aadb" fill-opacity="0.18" stroke="#364149" /><rect x="204" y="356" width="46" height="46" rx="15" fill="#1e242c" fill-opacity="1" stroke="#364149" /><rect x="258" y="356" width="46" height="46" rx="15" fill="#1e242c" fill-opacity="1" stroke="#364149" /><rect x="312" y="356" width="46" height="46" rx="15" fill="#1e242c" fill-opacity="1" stroke="#364149" /><rect x="366" y="356" width="46" height="46" rx="15" fill="#1e242c" fill-opacity="1" stroke="#364149" />
<path d="M 88 217 C 169.0 192, 169.0 242, 250 217" stroke="#38c8b5" stroke-width="3" stroke-linecap="round" /><circle cx="250" cy="217" r="5" fill="#38c8b5" stroke="#101318" stroke-width="2" /><path d="M 250 217 C 304.0 192, 304.0 350, 358 325" stroke="#f2bd64" stroke-width="3" stroke-linecap="round" /><circle cx="358" cy="325" r="5" fill="#f2bd64" stroke="#101318" stroke-width="2" /><path d="M 142 379 C 250.0 354, 250.0 404, 358 379" stroke="#75aadb" stroke-width="3" stroke-linecap="round" /><circle cx="358" cy="379" r="5" fill="#75aadb" stroke="#101318" stroke-width="2" />
<circle cx="250" cy="298" r="38" fill="#181d24" stroke="#38c8b5" stroke-width="2" />
<path d="M 250 264 L 260 285 L 283 288 L 266 304 L 270 327 L 250 316 L 230 327 L 234 304 L 217 288 L 240 285 Z" fill="#f2bd64" />
<line x1="520" y1="174" x2="520" y2="408" stroke="#364149" />
<text x="556" y="184" font-size="9" fill="#a3adb2" font-weight="750" letter-spacing="1.1">VERSION</text><text x="556" y="206" font-size="15" fill="#38c8b5" font-weight="750" text-anchor="start">6.0.0-dev</text><text x="556" y="244" font-size="9" fill="#a3adb2" font-weight="750" letter-spacing="1.1">TOOLCHAIN</text><text x="556" y="266" font-size="15" fill="#75aadb" font-weight="750" text-anchor="start">C++17 · Qt6 · CMake</text><text x="556" y="304" font-size="9" fill="#a3adb2" font-weight="750" letter-spacing="1.1">PROJECT SCALE</text><text x="556" y="326" font-size="15" fill="#f2bd64" font-weight="750" text-anchor="start">26 releases · 10 bots</text><text x="556" y="364" font-size="9" fill="#a3adb2" font-weight="750" letter-spacing="1.1">MAINTAINED BY</text><text x="556" y="386" font-size="15" fill="#f1f5f6" font-weight="750" text-anchor="start">SZXC-WG</text>
  </g>
</svg>
