<svg xmlns="http://www.w3.org/2000/svg" width="820" height="460" viewBox="0 0 820 460" fill="none" role="img" aria-labelledby="title desc">
  <title id="title">LocalGen generated visual</title>
  <desc id="desc">Automatically generated visual asset for the LocalGen website.</desc>
  <defs>
    <linearGradient id="bgGlow" x1="0" x2="1" y1="0" y2="1">
      <stop offset="0%" stop-color="#12213a" />
      <stop offset="100%" stop-color="#0a1322" />
    </linearGradient>
    <linearGradient id="accentLine" x1="0" x2="1" y1="0" y2="0">
      <stop offset="0%" stop-color="#4fd1f5" />
      <stop offset="100%" stop-color="#8b5cf6" />
    </linearGradient>
    <linearGradient id="accentArea" x1="0" x2="0" y1="0" y2="1">
      <stop offset="0%" stop-color="rgba(110,231,255,0.32)" />
      <stop offset="100%" stop-color="rgba(110,231,255,0.02)" />
    </linearGradient>
    <filter id="softShadow" x="-20%" y="-20%" width="140%" height="140%">
      <feDropShadow dx="0" dy="12" stdDeviation="16" flood-color="#020617" flood-opacity="0.42" />
    </filter>
    
  </defs>
  
  <rect width="820" height="460" rx="36" fill="url(#bgGlow)" />
  <circle cx="128" cy="104" r="110" fill="rgba(110,231,255,0.14)" />
  <circle cx="706" cy="366" r="144" fill="rgba(139,92,246,0.12)" />
  <g filter="url(#softShadow)"><rect x="24" y="24" width="772" height="412" rx="30" fill="#0f1c31" stroke="rgba(255,255,255,0.12)" stroke-width="1" /></g>
  <text x="40" y="72" font-size="16" fill="#6ee7ff" font-weight="700" letter-spacing="2">OFFLINE-FIRST</text>
  <text x="40" y="106" font-size="34" fill="#eff6ff" font-weight="700">Play, study, and extend</text>
  <text x="40" y="140" font-size="34" fill="#eff6ff" font-weight="700">Local Generals.io.</text>
  <text x="40" y="176" font-size="14" fill="#a9bdd7">Built around ready-to-use bots, same-LAN matches, replay tools, and the active Qt6 rewrite.</text>
  <g><rect x="176" y="182" width="56" height="56" rx="22" fill="#4fd1f522" stroke="rgba(255,255,255,0.08)" stroke-width="1" /><rect x="242" y="182" width="56" height="56" rx="22" fill="rgba(255,255,255,0.05)" stroke="rgba(255,255,255,0.08)" stroke-width="1" /><rect x="308" y="182" width="56" height="56" rx="22" fill="rgba(255,255,255,0.05)" stroke="rgba(255,255,255,0.08)" stroke-width="1" /><rect x="374" y="182" width="56" height="56" rx="22" fill="rgba(255,255,255,0.05)" stroke="rgba(255,255,255,0.08)" stroke-width="1" /><rect x="440" y="182" width="56" height="56" rx="22" fill="rgba(255,255,255,0.05)" stroke="rgba(255,255,255,0.08)" stroke-width="1" /><rect x="176" y="248" width="56" height="56" rx="22" fill="rgba(255,255,255,0.05)" stroke="rgba(255,255,255,0.08)" stroke-width="1" /><rect x="242" y="248" width="56" height="56" rx="22" fill="rgba(255,255,255,0.05)" stroke="rgba(255,255,255,0.08)" stroke-width="1" /><rect x="308" y="248" width="56" height="56" rx="22" fill="#8b5cf622" stroke="rgba(255,255,255,0.08)" stroke-width="1" /><rect x="374" y="248" width="56" height="56" rx="22" fill="rgba(255,255,255,0.05)" stroke="rgba(255,255,255,0.08)" stroke-width="1" /><rect x="440" y="248" width="56" height="56" rx="22" fill="rgba(255,255,255,0.05)" stroke="rgba(255,255,255,0.08)" stroke-width="1" /><rect x="176" y="314" width="56" height="56" rx="22" fill="rgba(255,255,255,0.05)" stroke="rgba(255,255,255,0.08)" stroke-width="1" /><rect x="242" y="314" width="56" height="56" rx="22" fill="rgba(255,255,255,0.05)" stroke="rgba(255,255,255,0.08)" stroke-width="1" /><rect x="308" y="314" width="56" height="56" rx="22" fill="rgba(255,255,255,0.05)" stroke="rgba(255,255,255,0.08)" stroke-width="1" /><rect x="374" y="314" width="56" height="56" rx="22" fill="#fbbf2422" stroke="rgba(255,255,255,0.08)" stroke-width="1" /><rect x="440" y="314" width="56" height="56" rx="22" fill="rgba(255,255,255,0.05)" stroke="rgba(255,255,255,0.08)" stroke-width="1" /><rect x="176" y="380" width="56" height="56" rx="22" fill="rgba(255,255,255,0.05)" stroke="rgba(255,255,255,0.08)" stroke-width="1" /><rect x="242" y="380" width="56" height="56" rx="22" fill="#4fd1f522" stroke="rgba(255,255,255,0.08)" stroke-width="1" /><rect x="308" y="380" width="56" height="56" rx="22" fill="rgba(255,255,255,0.05)" stroke="rgba(255,255,255,0.08)" stroke-width="1" /><rect x="374" y="380" width="56" height="56" rx="22" fill="rgba(255,255,255,0.05)" stroke="rgba(255,255,255,0.08)" stroke-width="1" /><rect x="440" y="380" width="56" height="56" rx="22" fill="rgba(255,255,255,0.05)" stroke="rgba(255,255,255,0.08)" stroke-width="1" /></g>
  <g><path d="M 248 210 C 320.0 180.0, 320.0 240.0, 392 210" stroke="url(#accentLine)" stroke-width="4" stroke-linecap="round" /><circle cx="392" cy="210" r="6" fill="#6ee7ff" /><path d="M 392 210 C 464.0 180.0, 464.0 316.0, 536 286" stroke="url(#accentLine)" stroke-width="4" stroke-linecap="round" /><circle cx="536" cy="286" r="6" fill="#6ee7ff" /><path d="M 320 362 C 428.0 332.0, 428.0 392.0, 536 362" stroke="url(#accentLine)" stroke-width="4" stroke-linecap="round" /><circle cx="536" cy="362" r="6" fill="#6ee7ff" /></g>
  <circle cx="410" cy="278" r="44" fill="rgba(255,255,255,0.08)" stroke="#6ee7ff" stroke-width="2" />
  <path d="M 410 240 L 422 262 L 445 266 L 428 284 L 432 308 L 410 296 L 388 308 L 392 284 L 375 266 L 398 262 Z" fill="#fbbf24" />
  <text x="602" y="166" font-size="12" fill="#a9bdd7">CURRENT BRANCH</text>
  <text x="602" y="188" font-size="24" fill="#eff6ff" font-weight="700">master / v6.x</text>
  <text x="602" y="234" font-size="12" fill="#a9bdd7">TOOLCHAIN</text>
  <text x="602" y="256" font-size="20" fill="#eff6ff" font-weight="700">C++17 · Qt6 · CMake</text>
  <text x="602" y="302" font-size="12" fill="#a9bdd7">PROJECT SCALE</text>
  <text x="602" y="324" font-size="20" fill="#eff6ff" font-weight="700">24 releases · 10 bots</text>
  <text x="602" y="370" font-size="12" fill="#a9bdd7">MAINTAINED BY</text>
  <text x="602" y="392" font-size="20" fill="#eff6ff" font-weight="700">SZXC-WG</text>

</svg>
