<svg xmlns="http://www.w3.org/2000/svg" width="820" height="472" viewBox="0 0 820 472" fill="none" role="img" aria-labelledby="title desc">
  <title id="title">LocalGen generated visual</title>
  <desc id="desc">Automatically generated visual asset for the LocalGen website.</desc>
  <defs>
    <linearGradient id="bgGlow" x1="0" x2="1" y1="0" y2="1">
      <stop offset="0%" stop-color="#12213a" />
      <stop offset="100%" stop-color="#0a1322" />
    </linearGradient>
    <linearGradient id="accentLine" x1="0" x2="1" y1="0" y2="0">
      <stop offset="0%" stop-color="#4fd1f5" />
      <stop offset="100%" stop-color="#8b5cf6" />
    </linearGradient>
    <linearGradient id="accentArea" x1="0" x2="0" y1="0" y2="1">
      <stop offset="0%" stop-color="rgba(110,231,255,0.32)" />
      <stop offset="100%" stop-color="rgba(110,231,255,0.02)" />
    </linearGradient>
    <filter id="softShadow" x="-20%" y="-20%" width="140%" height="140%">
      <feDropShadow dx="0" dy="12" stdDeviation="16" flood-color="#020617" flood-opacity="0.42" />
    </filter>
    
  </defs>
  
  <rect width="820" height="472" rx="32" fill="url(#bgGlow)" />
  <circle cx="90" cy="90" r="88" fill="rgba(110,231,255,0.10)" />
  <circle cx="730" cy="330" r="110" fill="rgba(139,92,246,0.09)" />
  <g filter="url(#softShadow)"><rect x="22" y="22" width="776" height="428" rx="28" fill="#0f1c31" stroke="rgba(255,255,255,0.12)" stroke-width="1" /></g>
  <text x="32" y="68" font-size="16" fill="#6ee7ff" font-weight="700" letter-spacing="2">PROJECT PILLARS</text>
  <text x="32" y="96" font-size="28" font-weight="700" fill="#eff6ff">Why LocalGen feels different</text>
    <text x="32" y="124" font-size="13" fill="#a9bdd7" text-anchor="start">The README and docs keep returning to the same promise: local-first strategy play, open</text><text x="32" y="142" font-size="13" fill="#a9bdd7" text-anchor="start">bot research, and a cleaner Qt-based future.</text>
  <rect x="32" y="184" width="178" height="194" rx="24" fill="#101d32" stroke="rgba(255,255,255,0.08)" stroke-width="1" /><circle cx="66" cy="218" r="18" fill="#6ee7ff" fill-opacity="0.18" stroke="#6ee7ff" stroke-opacity="0.45" /><circle cx="66" cy="218" r="7" fill="#6ee7ff" /><text x="56" y="258" font-size="18" font-weight="700" fill="#eff6ff">Offline play</text><text x="56" y="288" font-size="12" fill="#a9bdd7" text-anchor="start">Play generals.io entirely</text><text x="56" y="306" font-size="12" fill="#a9bdd7" text-anchor="start">offline with ready-to-use</text><text x="56" y="324" font-size="12" fill="#a9bdd7" text-anchor="start">built-in bots.</text><rect x="56" y="332" width="130" height="28" rx="14" fill="#6ee7ff" fill-opacity="0.16" /><text x="121" y="350" text-anchor="middle" font-size="11" fill="#6ee7ff" font-weight="700">master / v6.x</text><rect x="228" y="184" width="178" height="194" rx="24" fill="#101d32" stroke="rgba(255,255,255,0.08)" stroke-width="1" /><circle cx="262" cy="218" r="18" fill="#34d399" fill-opacity="0.18" stroke="#34d399" stroke-opacity="0.45" /><circle cx="262" cy="218" r="7" fill="#34d399" /><text x="252" y="258" font-size="18" font-weight="700" fill="#eff6ff">Same-LAN battles</text><text x="252" y="288" font-size="12" fill="#a9bdd7" text-anchor="start">Set up local matches with</text><text x="252" y="306" font-size="12" fill="#a9bdd7" text-anchor="start">nearby friends without a</text><text x="252" y="324" font-size="12" fill="#a9bdd7" text-anchor="start">hosted backend.</text><rect x="252" y="332" width="130" height="28" rx="14" fill="#34d399" fill-opacity="0.16" /><text x="317" y="350" text-anchor="middle" font-size="11" fill="#34d399" font-weight="700">24 releases</text><rect x="424" y="184" width="178" height="194" rx="24" fill="#101d32" stroke="rgba(255,255,255,0.08)" stroke-width="1" /><circle cx="458" cy="218" r="18" fill="#fbbf24" fill-opacity="0.18" stroke="#fbbf24" stroke-opacity="0.45" /><circle cx="458" cy="218" r="7" fill="#fbbf24" /><text x="448" y="258" font-size="18" font-weight="700" fill="#eff6ff">Bot laboratory</text><text x="448" y="288" font-size="12" fill="#a9bdd7" text-anchor="start">Compare heuristics, ship</text><text x="448" y="306" font-size="12" fill="#a9bdd7" text-anchor="start">built-in bots, or</text><text x="448" y="324" font-size="12" fill="#a9bdd7" text-anchor="start">prototype external ones i…</text><rect x="448" y="332" width="130" height="28" rx="14" fill="#fbbf24" fill-opacity="0.16" /><text x="513" y="350" text-anchor="middle" font-size="11" fill="#fbbf24" font-weight="700">10 bots</text><rect x="620" y="184" width="178" height="194" rx="24" fill="#101d32" stroke="rgba(255,255,255,0.08)" stroke-width="1" /><circle cx="654" cy="218" r="18" fill="#8b5cf6" fill-opacity="0.18" stroke="#8b5cf6" stroke-opacity="0.45" /><circle cx="654" cy="218" r="7" fill="#8b5cf6" /><text x="644" y="258" font-size="18" font-weight="700" fill="#eff6ff">Qt6 transition</text><text x="644" y="288" font-size="12" fill="#a9bdd7" text-anchor="start">Track the active rewrite</text><text x="644" y="306" font-size="12" fill="#a9bdd7" text-anchor="start">focused on portability,</text><text x="644" y="324" font-size="12" fill="#a9bdd7" text-anchor="start">maintainability, and tool…</text><rect x="644" y="332" width="130" height="28" rx="14" fill="#8b5cf6" fill-opacity="0.16" /><text x="709" y="350" text-anchor="middle" font-size="11" fill="#8b5cf6" font-weight="700">C++17/Qt6/CMake</text>
    <text x="32" y="436" font-size="12" fill="#a9bdd7">GPL-3.0 · SZXC-WG · source-backed from README and project guides</text>

</svg>
