<svg xmlns="http://www.w3.org/2000/svg" width="780" height="456" viewBox="0 0 780 456" fill="none" role="img" aria-labelledby="title desc">
  <title id="title">LocalGen release journey</title>
  <desc id="desc">Timeline of 26 LocalGen releases from 2023 to 2026.</desc>
  <defs>
<linearGradient id="background" x1="0" x2="1" y1="0" y2="1">
  <stop offset="0%" stop-color="#14181e" />
  <stop offset="100%" stop-color="#101318" />
</linearGradient>
<linearGradient id="panel" x1="0" x2="0" y1="0" y2="1">
  <stop offset="0%" stop-color="#1e242c" />
  <stop offset="100%" stop-color="#181d24" />
</linearGradient>
<linearGradient id="accentLine" x1="0" x2="1" y1="0" y2="0">
  <stop offset="0%" stop-color="#38c8b5" />
  <stop offset="100%" stop-color="#f2bd64" />
</linearGradient>
<linearGradient id="accentArea" x1="0" x2="0" y1="0" y2="1">
  <stop offset="0%" stop-color="#38c8b5" stop-opacity="0.26" />
  <stop offset="100%" stop-color="#38c8b5" stop-opacity="0.02" />
</linearGradient>
<pattern id="grid" width="44" height="44" patternUnits="userSpaceOnUse">
  <path d="M 44 0 L 0 0 0 44" fill="none" stroke="#293239" stroke-width="1" />
</pattern>
<filter id="softShadow" x="-20%" y="-20%" width="140%" height="150%">
  <feDropShadow dx="0" dy="10" stdDeviation="14" flood-color="#000000" flood-opacity="0.24" />
</filter>
  </defs>
  <g font-family="Inter, ui-sans-serif, system-ui, -apple-system, BlinkMacSystemFont, Segoe UI, sans-serif">
<rect width="780" height="456" rx="28" fill="url(#background)" />
<rect width="780" height="456" rx="28" fill="url(#grid)" opacity="0.34" />
<g filter="url(#softShadow)"><rect x="18" y="18" width="744" height="420" rx="22" fill="#181d24" stroke="#364149" stroke-width="1" /></g>
<rect x="36" y="28" width="162" height="48" rx="12" fill="#1e242c" stroke="#364149" stroke-width="1" /><text x="52" y="48" font-size="10" fill="#a3adb2" font-weight="700" letter-spacing="1.25">RELEASES</text><text x="52" y="66" font-size="15" fill="#38c8b5" font-weight="750">26</text><rect x="214" y="28" width="162" height="48" rx="12" fill="#1e242c" stroke="#364149" stroke-width="1" /><text x="230" y="48" font-size="10" fill="#a3adb2" font-weight="700" letter-spacing="1.25">STABLE</text><text x="230" y="66" font-size="15" fill="#68d391" font-weight="750">11</text><rect x="392" y="28" width="162" height="48" rx="12" fill="#1e242c" stroke="#364149" stroke-width="1" /><text x="408" y="48" font-size="10" fill="#a3adb2" font-weight="700" letter-spacing="1.25">PREVIEW</text><text x="408" y="66" font-size="15" fill="#f2bd64" font-weight="750">15</text><rect x="570" y="28" width="162" height="48" rx="12" fill="#1e242c" stroke="#364149" stroke-width="1" /><text x="586" y="48" font-size="10" fill="#a3adb2" font-weight="700" letter-spacing="1.25">LATEST</text><text x="586" y="66" font-size="15" fill="#75aadb" font-weight="750">v6.0.0-beta.2</text>
<text x="36" y="112" font-size="23" font-weight="750" fill="#f1f5f6">Release journey</text>
<text x="36" y="136" font-size="12" fill="#a3adb2" text-anchor="start">Cumulative published builds, from the first release to the active Qt</text><text x="36" y="154" font-size="12" fill="#a3adb2" text-anchor="start">era.</text>
<line x1="68" y1="398.0" x2="744" y2="398.0" stroke="#293239" stroke-dasharray="3 7" /><line x1="68" y1="346.8" x2="744" y2="346.8" stroke="#293239" stroke-dasharray="3 7" /><text x="56" y="350.8" text-anchor="end" font-size="11" fill="#a3adb2">6</text><line x1="68" y1="295.5" x2="744" y2="295.5" stroke="#293239" stroke-dasharray="3 7" /><text x="56" y="299.5" text-anchor="end" font-size="11" fill="#a3adb2">12</text><line x1="68" y1="244.3" x2="744" y2="244.3" stroke="#293239" stroke-dasharray="3 7" /><text x="56" y="248.3" text-anchor="end" font-size="11" fill="#a3adb2">18</text><line x1="68" y1="193.1" x2="744" y2="193.1" stroke="#293239" stroke-dasharray="3 7" /><text x="56" y="197.1" text-anchor="end" font-size="11" fill="#a3adb2">24</text>
<line x1="68.0" y1="176" x2="68.0" y2="398" stroke="#293239" /><text x="68.0" y="436" text-anchor="middle" font-size="11" fill="#a3adb2">2023</text><line x1="383.2" y1="176" x2="383.2" y2="398" stroke="#293239" /><text x="383.2" y="436" text-anchor="middle" font-size="11" fill="#a3adb2">2024</text><line x1="519.6" y1="176" x2="519.6" y2="398" stroke="#293239" /><text x="519.6" y="436" text-anchor="middle" font-size="11" fill="#a3adb2">2025</text><line x1="704.8" y1="176" x2="704.8" y2="398" stroke="#293239" /><text x="704.8" y="436" text-anchor="middle" font-size="11" fill="#a3adb2">2026</text>
<path d="M 68.0 398.0 L 68.0 389.5 L 68.0 380.9 L 71.2 372.4 L 75.0 363.8 L 80.3 355.3 L 82.5 346.8 L 83.0 338.2 L 95.9 329.7 L 95.9 321.2 L 107.7 312.6 L 122.2 304.1 L 164.1 295.5 L 171.1 287.0 L 175.9 278.5 L 187.7 269.9 L 202.8 261.4 L 205.5 252.8 L 210.8 244.3 L 248.4 235.8 L 383.2 227.2 L 519.6 218.7 L 520.6 210.2 L 545.3 201.6 L 704.8 193.1 L 742.4 184.5 L 744.0 176.0 L 744.0 398.0 Z" fill="url(#accentArea)" />
<path d="M 68.0 389.5 L 68.0 380.9 L 71.2 372.4 L 75.0 363.8 L 80.3 355.3 L 82.5 346.8 L 83.0 338.2 L 95.9 329.7 L 95.9 321.2 L 107.7 312.6 L 122.2 304.1 L 164.1 295.5 L 171.1 287.0 L 175.9 278.5 L 187.7 269.9 L 202.8 261.4 L 205.5 252.8 L 210.8 244.3 L 248.4 235.8 L 383.2 227.2 L 519.6 218.7 L 520.6 210.2 L 545.3 201.6 L 704.8 193.1 L 742.4 184.5 L 744.0 176.0" stroke="url(#accentLine)" stroke-width="3.5" stroke-linecap="round" stroke-linejoin="round" />
<circle cx="68.0" cy="389.5" r="4" fill="#f2bd64" stroke="#101318" stroke-width="2" /><circle cx="68.0" cy="380.9" r="4" fill="#f2bd64" stroke="#101318" stroke-width="2" /><circle cx="71.2" cy="372.4" r="4" fill="#68d391" stroke="#101318" stroke-width="2" /><circle cx="75.0" cy="363.8" r="4" fill="#68d391" stroke="#101318" stroke-width="2" /><circle cx="80.3" cy="355.3" r="4" fill="#68d391" stroke="#101318" stroke-width="2" /><circle cx="82.5" cy="346.8" r="4" fill="#68d391" stroke="#101318" stroke-width="2" /><circle cx="83.0" cy="338.2" r="4" fill="#68d391" stroke="#101318" stroke-width="2" /><circle cx="95.9" cy="329.7" r="4" fill="#f2bd64" stroke="#101318" stroke-width="2" /><circle cx="95.9" cy="321.2" r="4" fill="#f2bd64" stroke="#101318" stroke-width="2" /><circle cx="107.7" cy="312.6" r="4" fill="#68d391" stroke="#101318" stroke-width="2" /><circle cx="122.2" cy="304.1" r="4" fill="#68d391" stroke="#101318" stroke-width="2" /><circle cx="164.1" cy="295.5" r="4" fill="#68d391" stroke="#101318" stroke-width="2" /><circle cx="171.1" cy="287.0" r="4" fill="#68d391" stroke="#101318" stroke-width="2" /><circle cx="175.9" cy="278.5" r="4" fill="#68d391" stroke="#101318" stroke-width="2" /><circle cx="187.7" cy="269.9" r="4" fill="#f2bd64" stroke="#101318" stroke-width="2" /><circle cx="202.8" cy="261.4" r="4" fill="#f2bd64" stroke="#101318" stroke-width="2" /><circle cx="205.5" cy="252.8" r="4" fill="#f2bd64" stroke="#101318" stroke-width="2" /><circle cx="210.8" cy="244.3" r="4" fill="#f2bd64" stroke="#101318" stroke-width="2" /><circle cx="248.4" cy="235.8" r="4" fill="#f2bd64" stroke="#101318" stroke-width="2" /><circle cx="383.2" cy="227.2" r="4" fill="#f2bd64" stroke="#101318" stroke-width="2" /><circle cx="519.6" cy="218.7" r="4" fill="#f2bd64" stroke="#101318" stroke-width="2" /><circle cx="520.6" cy="210.2" r="4" fill="#f2bd64" stroke="#101318" stroke-width="2" /><circle cx="545.3" cy="201.6" r="4" fill="#f2bd64" stroke="#101318" stroke-width="2" /><circle cx="704.8" cy="193.1" r="4" fill="#f2bd64" stroke="#101318" stroke-width="2" /><circle cx="742.4" cy="184.5" r="4" fill="#f2bd64" stroke="#101318" stroke-width="2" /><circle cx="744.0" cy="176.0" r="6" fill="#68d391" stroke="#101318" stroke-width="2" />
<text x="740" y="164" text-anchor="end" font-size="11" fill="#a3adb2">CUMULATIVE RELEASES</text>
  </g>
</svg>
