<svg xmlns="http://www.w3.org/2000/svg" width="780" height="456" viewBox="0 0 780 456" fill="none" role="img" aria-labelledby="title desc">
  <title id="title">LocalGen generated visual</title>
  <desc id="desc">Automatically generated visual asset for the LocalGen website.</desc>
  <defs>
    <linearGradient id="bgGlow" x1="0" x2="1" y1="0" y2="1">
      <stop offset="0%" stop-color="#12213a" />
      <stop offset="100%" stop-color="#0a1322" />
    </linearGradient>
    <linearGradient id="accentLine" x1="0" x2="1" y1="0" y2="0">
      <stop offset="0%" stop-color="#4fd1f5" />
      <stop offset="100%" stop-color="#8b5cf6" />
    </linearGradient>
    <linearGradient id="accentArea" x1="0" x2="0" y1="0" y2="1">
      <stop offset="0%" stop-color="rgba(110,231,255,0.32)" />
      <stop offset="100%" stop-color="rgba(110,231,255,0.02)" />
    </linearGradient>
    <filter id="softShadow" x="-20%" y="-20%" width="140%" height="140%">
      <feDropShadow dx="0" dy="12" stdDeviation="16" flood-color="#020617" flood-opacity="0.42" />
    </filter>
    
  </defs>
  
  <rect width="780" height="456" rx="32" fill="url(#bgGlow)" />
  <circle cx="670" cy="72" r="96" fill="rgba(110,231,255,0.10)" />
  <circle cx="94" cy="360" r="140" fill="rgba(139,92,246,0.08)" />
  <g filter="url(#softShadow)"><rect x="22" y="22" width="736" height="412" rx="28" fill="#0f1c31" stroke="rgba(255,255,255,0.12)" stroke-width="1" /></g>
    <text x="36" y="108" font-size="24" font-weight="700" fill="#eff6ff">Release journey</text>
    <text x="36" y="132" font-size="13" fill="#a9bdd7" text-anchor="start">How LocalGen evolved from the first GUI builds to the current Qt-era</text><text x="36" y="150" font-size="13" fill="#a9bdd7" text-anchor="start">branch.</text>
  <rect x="36" y="28" width="162" height="44" rx="16" fill="#101d32" stroke="rgba(255,255,255,0.08)" stroke-width="1" /><text x="54" y="48" font-size="11" fill="#a9bdd7" letter-spacing="1.4">RELEASES</text><text x="54" y="63" font-size="16" fill="#6ee7ff" font-weight="700">26</text><rect x="214" y="28" width="162" height="44" rx="16" fill="#101d32" stroke="rgba(255,255,255,0.08)" stroke-width="1" /><text x="232" y="48" font-size="11" fill="#a9bdd7" letter-spacing="1.4">STABLE</text><text x="232" y="63" font-size="16" fill="#34d399" font-weight="700">11</text><rect x="392" y="28" width="162" height="44" rx="16" fill="#101d32" stroke="rgba(255,255,255,0.08)" stroke-width="1" /><text x="410" y="48" font-size="11" fill="#a9bdd7" letter-spacing="1.4">PREVIEW</text><text x="410" y="63" font-size="16" fill="#fbbf24" font-weight="700">15</text><rect x="570" y="28" width="162" height="44" rx="16" fill="#101d32" stroke="rgba(255,255,255,0.08)" stroke-width="1" /><text x="588" y="48" font-size="11" fill="#a9bdd7" letter-spacing="1.4">LATEST</text><text x="588" y="63" font-size="16" fill="#8b5cf6" font-weight="700">v6.0.0-beta.2</text>
  <g><line x1="68" y1="398.0" x2="744" y2="398.0" stroke="rgba(255,255,255,0.08)" stroke-dasharray="4 6" /><line x1="68" y1="354.5" x2="744" y2="354.5" stroke="rgba(255,255,255,0.08)" stroke-dasharray="4 6" /><text x="54" y="358.5" text-anchor="end" font-size="12" fill="#a9bdd7">5</text><line x1="68" y1="311.1" x2="744" y2="311.1" stroke="rgba(255,255,255,0.08)" stroke-dasharray="4 6" /><text x="54" y="315.1" text-anchor="end" font-size="12" fill="#a9bdd7">10</text><line x1="68" y1="267.6" x2="744" y2="267.6" stroke="rgba(255,255,255,0.08)" stroke-dasharray="4 6" /><text x="54" y="271.6" text-anchor="end" font-size="12" fill="#a9bdd7">15</text><line x1="68" y1="224.2" x2="744" y2="224.2" stroke="rgba(255,255,255,0.08)" stroke-dasharray="4 6" /><text x="54" y="228.2" text-anchor="end" font-size="12" fill="#a9bdd7">20</text><line x1="68" y1="180.7" x2="744" y2="180.7" stroke="rgba(255,255,255,0.08)" stroke-dasharray="4 6" /><text x="54" y="184.7" text-anchor="end" font-size="12" fill="#a9bdd7">25</text></g>
  <g><line x1="68.0" y1="172" x2="68.0" y2="398" stroke="rgba(255,255,255,0.08)" /><text x="68.0" y="438" text-anchor="middle" font-size="12" fill="#a9bdd7">2023</text><line x1="252.7" y1="172" x2="252.7" y2="398" stroke="rgba(255,255,255,0.08)" /><text x="252.7" y="438" text-anchor="middle" font-size="12" fill="#a9bdd7">2024</text><line x1="449.2" y1="172" x2="449.2" y2="398" stroke="rgba(255,255,255,0.08)" /><text x="449.2" y="438" text-anchor="middle" font-size="12" fill="#a9bdd7">2025</text><line x1="645.2" y1="172" x2="645.2" y2="398" stroke="rgba(255,255,255,0.08)" /><text x="645.2" y="438" text-anchor="middle" font-size="12" fill="#a9bdd7">2026</text></g>
  <path d="M 68.0 398.0 L 68.0 389.3 L 68.0 380.6 L 71.2 371.9 L 75.0 363.2 L 80.3 354.5 L 82.5 345.8 L 83.0 337.2 L 95.9 328.5 L 95.9 319.8 L 107.7 311.1 L 122.2 302.4 L 164.1 293.7 L 171.1 285.0 L 175.9 276.3 L 187.7 267.6 L 202.8 258.9 L 205.5 250.2 L 210.8 241.5 L 248.4 232.8 L 383.2 224.2 L 519.6 215.5 L 520.6 206.8 L 545.3 198.1 L 704.8 189.4 L 742.4 180.7 L 744.0 172.0 L 744.0 398.0 Z" fill="rgba(110,231,255,0.18)" />
  <path d="M 68.0 389.3 L 68.0 380.6 L 71.2 371.9 L 75.0 363.2 L 80.3 354.5 L 82.5 345.8 L 83.0 337.2 L 95.9 328.5 L 95.9 319.8 L 107.7 311.1 L 122.2 302.4 L 164.1 293.7 L 171.1 285.0 L 175.9 276.3 L 187.7 267.6 L 202.8 258.9 L 205.5 250.2 L 210.8 241.5 L 248.4 232.8 L 383.2 224.2 L 519.6 215.5 L 520.6 206.8 L 545.3 198.1 L 704.8 189.4 L 742.4 180.7 L 744.0 172.0" stroke="url(#accentLine)" stroke-width="4" stroke-linecap="round" stroke-linejoin="round" />
  <g><circle cx="68.0" cy="389.3" r="4.5" fill="#fbbf24" stroke="#08111f" stroke-width="2" /><circle cx="68.0" cy="380.6" r="4.5" fill="#fbbf24" stroke="#08111f" stroke-width="2" /><circle cx="71.2" cy="371.9" r="4.5" fill="#34d399" stroke="#08111f" stroke-width="2" /><circle cx="75.0" cy="363.2" r="4.5" fill="#34d399" stroke="#08111f" stroke-width="2" /><circle cx="80.3" cy="354.5" r="4.5" fill="#34d399" stroke="#08111f" stroke-width="2" /><circle cx="82.5" cy="345.8" r="4.5" fill="#34d399" stroke="#08111f" stroke-width="2" /><circle cx="83.0" cy="337.2" r="4.5" fill="#34d399" stroke="#08111f" stroke-width="2" /><circle cx="95.9" cy="328.5" r="4.5" fill="#fbbf24" stroke="#08111f" stroke-width="2" /><circle cx="95.9" cy="319.8" r="4.5" fill="#fbbf24" stroke="#08111f" stroke-width="2" /><circle cx="107.7" cy="311.1" r="4.5" fill="#34d399" stroke="#08111f" stroke-width="2" /><circle cx="122.2" cy="302.4" r="4.5" fill="#34d399" stroke="#08111f" stroke-width="2" /><circle cx="164.1" cy="293.7" r="4.5" fill="#34d399" stroke="#08111f" stroke-width="2" /><circle cx="171.1" cy="285.0" r="4.5" fill="#34d399" stroke="#08111f" stroke-width="2" /><circle cx="175.9" cy="276.3" r="4.5" fill="#34d399" stroke="#08111f" stroke-width="2" /><circle cx="187.7" cy="267.6" r="4.5" fill="#fbbf24" stroke="#08111f" stroke-width="2" /><circle cx="202.8" cy="258.9" r="4.5" fill="#fbbf24" stroke="#08111f" stroke-width="2" /><circle cx="205.5" cy="250.2" r="4.5" fill="#fbbf24" stroke="#08111f" stroke-width="2" /><circle cx="210.8" cy="241.5" r="4.5" fill="#fbbf24" stroke="#08111f" stroke-width="2" /><circle cx="248.4" cy="232.8" r="4.5" fill="#fbbf24" stroke="#08111f" stroke-width="2" /><circle cx="383.2" cy="224.2" r="4.5" fill="#fbbf24" stroke="#08111f" stroke-width="2" /><circle cx="519.6" cy="215.5" r="4.5" fill="#fbbf24" stroke="#08111f" stroke-width="2" /><circle cx="520.6" cy="206.8" r="4.5" fill="#fbbf24" stroke="#08111f" stroke-width="2" /><circle cx="545.3" cy="198.1" r="4.5" fill="#fbbf24" stroke="#08111f" stroke-width="2" /><circle cx="704.8" cy="189.4" r="4.5" fill="#fbbf24" stroke="#08111f" stroke-width="2" /><circle cx="742.4" cy="180.7" r="4.5" fill="#fbbf24" stroke="#08111f" stroke-width="2" /><circle cx="744.0" cy="172.0" r="6" fill="#34d399" stroke="#08111f" stroke-width="2" /></g>
    <text x="740" y="158" text-anchor="end" font-size="12" fill="#a9bdd7">cumulative releases</text>
    <text x="740" y="434" text-anchor="end" font-size="12" fill="#a9bdd7">2023–2026</text>

</svg>
