<svg xmlns="http://www.w3.org/2000/svg" width="780" height="456" viewBox="0 0 780 456" fill="none" role="img" aria-labelledby="title desc">
  <title id="title">LocalGen generated visual</title>
  <desc id="desc">Automatically generated visual asset for the LocalGen website.</desc>
  <defs>
    <linearGradient id="bgGlow" x1="0" x2="1" y1="0" y2="1">
      <stop offset="0%" stop-color="#12213a" />
      <stop offset="100%" stop-color="#0a1322" />
    </linearGradient>
    <linearGradient id="accentLine" x1="0" x2="1" y1="0" y2="0">
      <stop offset="0%" stop-color="#4fd1f5" />
      <stop offset="100%" stop-color="#8b5cf6" />
    </linearGradient>
    <linearGradient id="accentArea" x1="0" x2="0" y1="0" y2="1">
      <stop offset="0%" stop-color="rgba(110,231,255,0.32)" />
      <stop offset="100%" stop-color="rgba(110,231,255,0.02)" />
    </linearGradient>
    <filter id="softShadow" x="-20%" y="-20%" width="140%" height="140%">
      <feDropShadow dx="0" dy="12" stdDeviation="16" flood-color="#020617" flood-opacity="0.42" />
    </filter>
    
  </defs>
  
  <rect width="780" height="456" rx="32" fill="url(#bgGlow)" />
  <circle cx="670" cy="72" r="96" fill="rgba(110,231,255,0.10)" />
  <circle cx="94" cy="360" r="140" fill="rgba(139,92,246,0.08)" />
  <g filter="url(#softShadow)"><rect x="22" y="22" width="736" height="412" rx="28" fill="#0f1c31" stroke="rgba(255,255,255,0.12)" stroke-width="1" /></g>
    <text x="36" y="108" font-size="24" font-weight="700" fill="#eff6ff">Release journey</text>
    <text x="36" y="132" font-size="13" fill="#a9bdd7" text-anchor="start">How LocalGen evolved from the first GUI builds to the current Qt-era</text><text x="36" y="150" font-size="13" fill="#a9bdd7" text-anchor="start">branch.</text>
  <rect x="36" y="28" width="162" height="44" rx="16" fill="#101d32" stroke="rgba(255,255,255,0.08)" stroke-width="1" /><text x="54" y="48" font-size="11" fill="#a9bdd7" letter-spacing="1.4">RELEASES</text><text x="54" y="63" font-size="16" fill="#6ee7ff" font-weight="700">24</text><rect x="214" y="28" width="162" height="44" rx="16" fill="#101d32" stroke="rgba(255,255,255,0.08)" stroke-width="1" /><text x="232" y="48" font-size="11" fill="#a9bdd7" letter-spacing="1.4">STABLE</text><text x="232" y="63" font-size="16" fill="#34d399" font-weight="700">13</text><rect x="392" y="28" width="162" height="44" rx="16" fill="#101d32" stroke="rgba(255,255,255,0.08)" stroke-width="1" /><text x="410" y="48" font-size="11" fill="#a9bdd7" letter-spacing="1.4">PREVIEW</text><text x="410" y="63" font-size="16" fill="#fbbf24" font-weight="700">11</text><rect x="570" y="28" width="162" height="44" rx="16" fill="#101d32" stroke="rgba(255,255,255,0.08)" stroke-width="1" /><text x="588" y="48" font-size="11" fill="#a9bdd7" letter-spacing="1.4">LATEST</text><text x="588" y="63" font-size="16" fill="#8b5cf6" font-weight="700">v6.0.0-beta.1</text>
  <g><line x1="68" y1="398.0" x2="744" y2="398.0" stroke="rgba(255,255,255,0.08)" stroke-dasharray="4 6" /><line x1="68" y1="350.9" x2="744" y2="350.9" stroke="rgba(255,255,255,0.08)" stroke-dasharray="4 6" /><text x="54" y="354.9" text-anchor="end" font-size="12" fill="#a9bdd7">5</text><line x1="68" y1="303.8" x2="744" y2="303.8" stroke="rgba(255,255,255,0.08)" stroke-dasharray="4 6" /><text x="54" y="307.8" text-anchor="end" font-size="12" fill="#a9bdd7">10</text><line x1="68" y1="256.8" x2="744" y2="256.8" stroke="rgba(255,255,255,0.08)" stroke-dasharray="4 6" /><text x="54" y="260.8" text-anchor="end" font-size="12" fill="#a9bdd7">15</text><line x1="68" y1="209.7" x2="744" y2="209.7" stroke="rgba(255,255,255,0.08)" stroke-dasharray="4 6" /><text x="54" y="213.7" text-anchor="end" font-size="12" fill="#a9bdd7">20</text></g>
  <g><line x1="68.0" y1="172" x2="68.0" y2="398" stroke="rgba(255,255,255,0.08)" /><text x="68.0" y="438" text-anchor="middle" font-size="12" fill="#a9bdd7">2023</text><line x1="264.1" y1="172" x2="264.1" y2="398" stroke="rgba(255,255,255,0.08)" /><text x="264.1" y="438" text-anchor="middle" font-size="12" fill="#a9bdd7">2024</text><line x1="472.7" y1="172" x2="472.7" y2="398" stroke="rgba(255,255,255,0.08)" /><text x="472.7" y="438" text-anchor="middle" font-size="12" fill="#a9bdd7">2025</text><line x1="680.7" y1="172" x2="680.7" y2="398" stroke="rgba(255,255,255,0.08)" /><text x="680.7" y="438" text-anchor="middle" font-size="12" fill="#a9bdd7">2026</text></g>
  <path d="M 68.0 398.0 L 68.0 388.6 L 68.0 379.2 L 71.4 369.8 L 75.4 360.3 L 81.1 350.9 L 83.4 341.5 L 84.0 332.1 L 97.6 322.7 L 97.6 313.2 L 110.2 303.8 L 125.6 294.4 L 170.0 285.0 L 177.4 275.6 L 182.6 266.2 L 195.1 256.8 L 211.1 247.3 L 213.9 237.9 L 219.6 228.5 L 259.5 219.1 L 402.6 209.7 L 547.4 200.2 L 548.5 190.8 L 574.7 181.4 L 744.0 172.0 L 744.0 398.0 Z" fill="rgba(110,231,255,0.18)" />
  <path d="M 68.0 388.6 L 68.0 379.2 L 71.4 369.8 L 75.4 360.3 L 81.1 350.9 L 83.4 341.5 L 84.0 332.1 L 97.6 322.7 L 97.6 313.2 L 110.2 303.8 L 125.6 294.4 L 170.0 285.0 L 177.4 275.6 L 182.6 266.2 L 195.1 256.8 L 211.1 247.3 L 213.9 237.9 L 219.6 228.5 L 259.5 219.1 L 402.6 209.7 L 547.4 200.2 L 548.5 190.8 L 574.7 181.4 L 744.0 172.0" stroke="url(#accentLine)" stroke-width="4" stroke-linecap="round" stroke-linejoin="round" />
  <g><circle cx="68.0" cy="388.6" r="4.5" fill="#fbbf24" stroke="#08111f" stroke-width="2" /><circle cx="68.0" cy="379.2" r="4.5" fill="#fbbf24" stroke="#08111f" stroke-width="2" /><circle cx="71.4" cy="369.8" r="4.5" fill="#34d399" stroke="#08111f" stroke-width="2" /><circle cx="75.4" cy="360.3" r="4.5" fill="#34d399" stroke="#08111f" stroke-width="2" /><circle cx="81.1" cy="350.9" r="4.5" fill="#34d399" stroke="#08111f" stroke-width="2" /><circle cx="83.4" cy="341.5" r="4.5" fill="#34d399" stroke="#08111f" stroke-width="2" /><circle cx="84.0" cy="332.1" r="4.5" fill="#34d399" stroke="#08111f" stroke-width="2" /><circle cx="97.6" cy="322.7" r="4.5" fill="#fbbf24" stroke="#08111f" stroke-width="2" /><circle cx="97.6" cy="313.2" r="4.5" fill="#fbbf24" stroke="#08111f" stroke-width="2" /><circle cx="110.2" cy="303.8" r="4.5" fill="#34d399" stroke="#08111f" stroke-width="2" /><circle cx="125.6" cy="294.4" r="4.5" fill="#34d399" stroke="#08111f" stroke-width="2" /><circle cx="170.0" cy="285.0" r="4.5" fill="#34d399" stroke="#08111f" stroke-width="2" /><circle cx="177.4" cy="275.6" r="4.5" fill="#34d399" stroke="#08111f" stroke-width="2" /><circle cx="182.6" cy="266.2" r="4.5" fill="#34d399" stroke="#08111f" stroke-width="2" /><circle cx="195.1" cy="256.8" r="4.5" fill="#fbbf24" stroke="#08111f" stroke-width="2" /><circle cx="211.1" cy="247.3" r="4.5" fill="#fbbf24" stroke="#08111f" stroke-width="2" /><circle cx="213.9" cy="237.9" r="4.5" fill="#fbbf24" stroke="#08111f" stroke-width="2" /><circle cx="219.6" cy="228.5" r="4.5" fill="#fbbf24" stroke="#08111f" stroke-width="2" /><circle cx="259.5" cy="219.1" r="4.5" fill="#fbbf24" stroke="#08111f" stroke-width="2" /><circle cx="402.6" cy="209.7" r="4.5" fill="#fbbf24" stroke="#08111f" stroke-width="2" /><circle cx="547.4" cy="200.2" r="4.5" fill="#fbbf24" stroke="#08111f" stroke-width="2" /><circle cx="548.5" cy="190.8" r="4.5" fill="#34d399" stroke="#08111f" stroke-width="2" /><circle cx="574.7" cy="181.4" r="4.5" fill="#34d399" stroke="#08111f" stroke-width="2" /><circle cx="744.0" cy="172.0" r="6" fill="#34d399" stroke="#08111f" stroke-width="2" /></g>
    <text x="740" y="158" text-anchor="end" font-size="12" fill="#a9bdd7">cumulative releases</text>
    <text x="740" y="434" text-anchor="end" font-size="12" fill="#a9bdd7">2023–2026</text>

</svg>
